<svg class="animated" id="freepik_stories-top-up-credit" xmlns="http://www.w3.org/2000/svg" viewBox="0 0 500 500" version="1.1" xmlns:xlink="http://www.w3.org/1999/xlink" xmlns:svgjs="http://svgjs.com/svgjs"><style>svg#freepik_stories-top-up-credit:not(.animated) .animable {opacity: 0;}svg#freepik_stories-top-up-credit.animated #freepik--Floor--inject-333 {animation: 1s 1 forwards cubic-bezier(.36,-0.01,.5,1.38) slideDown;animation-delay: 0s;}svg#freepik_stories-top-up-credit.animated #freepik--Plant--inject-333 {animation: 1s 1 forwards cubic-bezier(.36,-0.01,.5,1.38) slideDown;animation-delay: 0s;}svg#freepik_stories-top-up-credit.animated #freepik--Device--inject-333 {animation: 1s 1 forwards cubic-bezier(.36,-0.01,.5,1.38) slideLeft;animation-delay: 0s;}svg#freepik_stories-top-up-credit.animated #freepik--Charater--inject-333 {animation: 1s 1 forwards ease-out slideLeft;animation-delay: 0s;}            @keyframes slideDown {                0% {                    opacity: 0;                    transform: translateY(-30px);                }                100% {                    opacity: 1;                    transform: translateY(0);                }            }                    @keyframes slideLeft {                0% {                    opacity: 0;                    transform: translateX(-30px);                }                100% {                    opacity: 1;                    transform: translateX(0);                }            }        </style><g id="freepik--Floor--inject-333" class="animable animator-active" style="transform-origin: 249px 466.235px;"><path d="M457.25,466.21c0,.15-93.24.26-208.24.26s-208.26-.11-208.26-.26S134,466,249,466,457.25,466.07,457.25,466.21Z" style="fill: rgb(38, 50, 56); transform-origin: 249px 466.235px;" id="ely7r6kv2fdpb" class="animable"></path></g><g id="freepik--Plant--inject-333" class="animable" style="transform-origin: 406.25px 351.53px;"><path d="M452.33,242.18c-11.68,6-20.63,16.46-27.07,27.92s-10.58,24-14.69,36.54L407,371.05c13.59-23.11,24.49-50.28,27.43-76.92l-9-.81c6.07-.92,11.15-5.31,14.39-10.52s4.9-11.21,6.53-17.12l-11,1.63A40.87,40.87,0,0,0,452.33,242.18Z" style="fill: rgb(69, 90, 100); transform-origin: 429.665px 306.615px;" id="elhloy1eej3we" class="animable"></path><g id="elfoebz0jtlin"><g style="opacity: 0.3; transform-origin: 429.665px 306.615px;" class="animable"><path d="M452.33,242.18c-11.68,6-20.63,16.46-27.07,27.92s-10.58,24-14.69,36.54L407,371.05c13.59-23.11,24.49-50.28,27.43-76.92l-9-.81c6.07-.92,11.15-5.31,14.39-10.52s4.9-11.21,6.53-17.12l-11,1.63A40.87,40.87,0,0,0,452.33,242.18Z" id="elyf6wqpv9lo8" class="animable" style="transform-origin: 429.665px 306.615px;"></path></g></g><path d="M405,386.14s-29.48-35.29-29.14-69h11.91s-12.94-8.51-11.92-13.27,1.37-22.8,1.37-22.8l10.89,2.72s-8.17-4.08-9.19-10.55,2.38-36.41,2.38-36.41,13.27,14,17.36,28.24,14.8,31,11.65,74.53S405,386.14,405,386.14Z" style="fill: rgb(69, 90, 100); transform-origin: 393.337px 311.485px;" id="elcssnibqk57" class="animable"></path><path d="M419.91,389.47s31.94-21.28,39-48.44l-9.58-2.6s12.27-4,12.48-8.07,3.9-18.63,3.9-18.63l-9.35-.19s7.46-1.5,9.69-6.47,6.05-29.8,6.05-29.8-13.72,8.32-20.13,18.91-18.68,21.66-25.68,57.37S419.91,389.47,419.91,389.47Z" style="fill: rgb(69, 90, 100); transform-origin: 445.998px 332.37px;" id="eltw0bj1okhta" class="animable"></path><path d="M389.32,267.62s0,.12.1.37.15.62.26,1.08c.21,1,.53,2.39.93,4.19s.88,4.05,1.39,6.64,1.14,5.55,1.74,8.83c1.26,6.54,2.59,14.36,4,23.07s2.66,18.3,3.84,28.4,2,19.76,2.74,28.54,1.14,16.71,1.41,23.37c.16,3.33.24,6.34.32,9s.14,4.93.16,6.79,0,3.28.05,4.29v1.12a2.79,2.79,0,0,1,0,.38,2.28,2.28,0,0,1,0-.38c0-.28,0-.65-.05-1.12,0-1-.08-2.44-.14-4.28s-.13-4.14-.25-6.79-.21-5.65-.4-9c-.31-6.66-.84-14.57-1.52-23.35s-1.63-18.42-2.78-28.52-2.49-19.68-3.79-28.39-2.64-16.53-3.86-23.07c-.57-3.29-1.15-6.24-1.65-8.84s-.93-4.83-1.31-6.66l-.84-4.21c-.08-.46-.15-.82-.2-1.09A1.37,1.37,0,0,1,389.32,267.62Z" style="fill: rgb(38, 50, 56); transform-origin: 397.793px 340.655px;" id="elr7t3oaep1z" class="animable"></path><path d="M400.87,407.75s-27-30.61-35.36-49.12l6.33-2.7c-4.59.75-9.29-1.22-12.84-4.21s-6.17-6.93-8.72-10.8l8.33-1.41a31,31,0,0,1-18.21-14.1c9.83,1.61,18.73,7,26.06,13.76a130.18,130.18,0,0,1,15.79,18.3,62.76,62.76,0,0,1,6.13,10.08C392.91,376.92,400.89,396.51,400.87,407.75Z" style="fill: rgb(69, 90, 100); transform-origin: 370.635px 366.58px;" id="el6zd1uopjysl" class="animable"></path><path d="M459.37,293.09a1.15,1.15,0,0,1-.12.31l-.42.89-1.64,3.4c-1.45,2.94-3.5,7.21-6,12.52s-5.36,11.66-8.43,18.76-6.3,15-9.53,23.32-6.11,16.35-8.64,23.67-4.66,14-6.39,19.55-3.09,10.14-4,13.29c-.46,1.54-.82,2.76-1.07,3.62l-.29.93a1.72,1.72,0,0,1-.12.32,1.92,1.92,0,0,1,.07-.33l.24-.95c.23-.87.55-2.09,1-3.65.85-3.16,2.15-7.72,3.84-13.33s3.81-12.27,6.29-19.61,5.38-15.35,8.6-23.7,6.5-16.21,9.58-23.32,6-13.45,8.53-18.73,4.63-9.54,6.13-12.45l1.74-3.36.46-.86Z" style="fill: rgb(38, 50, 56); transform-origin: 436.045px 353.38px;" id="el7td3mt8uyzy" class="animable"></path><path d="M403.16,420.87a2.42,2.42,0,0,1-.13-.56c-.07-.43-.15-1-.26-1.63s-.23-1.57-.42-2.57-.35-2.14-.62-3.38c-.49-2.51-1.18-5.47-2.06-8.73s-2-6.78-3.4-10.43-2.88-7-4.34-10.07-2.93-5.71-4.22-7.91c-.62-1.11-1.25-2.08-1.77-2.95s-1-1.61-1.38-2.21l-.88-1.39a2.63,2.63,0,0,1-.28-.5s.14.14.36.44.58.8,1,1.34.92,1.3,1.46,2.16,1.2,1.82,1.84,2.93c1.34,2.18,2.82,4.85,4.34,7.88s3,6.44,4.4,10.1,2.48,7.22,3.37,10.49,1.52,6.25,2,8.78c.25,1.25.4,2.4.55,3.41s.26,1.87.33,2.58.12,1.21.17,1.64A2.32,2.32,0,0,1,403.16,420.87Z" style="fill: rgb(38, 50, 56); transform-origin: 393.31px 394.705px;" id="el2x8c8ghg2jw" class="animable"></path><rect x="379.71" y="413.67" width="59.05" height="12.05" style="fill: rgb(144, 202, 249); transform-origin: 409.235px 419.695px;" id="el5ka6d20l9q7" class="animable"></rect><polygon points="385.34 425.71 391.72 466.23 427.41 466.23 433.36 425.71 385.34 425.71" style="fill: rgb(144, 202, 249); transform-origin: 409.35px 445.97px;" id="elbqnc2le15li" class="animable"></polygon><path d="M435.14,425.71c0,.15-11.17.26-24.95.26s-24.95-.11-24.95-.26,11.17-.26,24.95-.26S435.14,425.57,435.14,425.71Z" style="fill: rgb(38, 50, 56); transform-origin: 410.19px 425.71px;" id="elyroginq8i6p" class="animable"></path></g><g id="freepik--Device--inject-333" class="animable" style="transform-origin: 260.245px 260.505px;"><path d="M326.66,466.09,193.73,466c-16,0-28.94-13.64-28.94-30.44l.07-350.22c0-16.81,13-30.43,29-30.42L326.76,55c16,0,28.94,13.64,28.94,30.44l-.07,350.21C355.63,452.48,342.66,466.1,326.66,466.09Z" style="fill: rgb(38, 50, 56); transform-origin: 260.245px 260.505px;" id="eli2fodz9ek1m" class="animable"></path><path d="M326.62,67.4l-25.77,0c-3.46,0-6.26,3.08-6.26,6.87v4.92c0,3.79-2.81,6.87-6.26,6.87l-50.24,0c-3.45,0-6.26-3.09-6.25-6.88V74.21c0-3.79-2.81-6.87-6.26-6.87H194c-11.21,0-20.29,9.53-20.29,21.3l-.07,341.84c0,11.77,9.07,21.31,20.27,21.32l132.66.08c11.2,0,20.29-9.53,20.29-21.31l.07-341.84C346.89,77,337.82,67.4,326.62,67.4Z" style="fill: rgb(255, 255, 255); transform-origin: 260.285px 259.61px;" id="el6iwl1c44ayt" class="animable"></path><path d="M201.69,424.82v10a1.1,1.1,0,0,1-1.69.93l-7.89-5a1.11,1.11,0,0,1,0-1.87l7.89-5A1.1,1.1,0,0,1,201.69,424.82Z" style="fill: rgb(224, 224, 224); transform-origin: 196.644px 429.815px;" id="elrljoktu7tg" class="animable"></path><path d="M266.49,429.74a6.91,6.91,0,1,1-6.91-6.93A6.92,6.92,0,0,1,266.49,429.74Z" style="fill: rgb(224, 224, 224); transform-origin: 259.58px 429.72px;" id="el9v9g14tuy7n" class="animable"></path><rect x="316.14" y="423.71" width="12.76" height="12.79" rx="1.87" style="fill: rgb(224, 224, 224); transform-origin: 322.52px 430.105px;" id="elsxdv31koclo" class="animable"></rect><path d="M335.53,107.46a1.72,1.72,0,1,1-1.72-1.72A1.72,1.72,0,0,1,335.53,107.46Z" style="fill: rgb(38, 50, 56); transform-origin: 333.81px 107.46px;" id="el29s0uxz1dgd" class="animable"></path><circle cx="333.81" cy="112.16" r="1.72" style="fill: rgb(38, 50, 56); transform-origin: 333.81px 112.16px;" id="eli2k40gjpnki" class="animable"></circle><circle cx="333.81" cy="116.86" r="1.72" style="fill: rgb(38, 50, 56); transform-origin: 333.81px 116.86px;" id="elw4jwggqvr" class="animable"></circle><path d="M345.71,127.09c0,.14-38.67.25-86.36.25s-86.36-.11-86.36-.25,38.66-.25,86.36-.25S345.71,127,345.71,127.09Z" style="fill: rgb(224, 224, 224); transform-origin: 259.35px 127.09px;" id="el5kxa5dvqgdn" class="animable"></path><path d="M189.58,109.53H187v-1.21h6.57v1.21H191v6.53h-1.44Z" style="fill: rgb(38, 50, 56); transform-origin: 190.285px 112.19px;" id="el2zt35j3j544" class="animable"></path><path d="M193.44,113.11a3.15,3.15,0,1,1,3.14,3A3,3,0,0,1,193.44,113.11Zm4.9,0a1.75,1.75,0,1,0-1.76,1.84A1.72,1.72,0,0,0,198.34,113.11Z" style="fill: rgb(38, 50, 56); transform-origin: 196.586px 112.962px;" id="eluwvkpf85mu" class="animable"></path><path d="M207.34,113.11a2.88,2.88,0,0,1-3,3,2.43,2.43,0,0,1-1.89-.8v2.87h-1.38v-8.06h1.31v.78a2.43,2.43,0,0,1,2-.84A2.87,2.87,0,0,1,207.34,113.11Zm-1.41,0a1.75,1.75,0,1,0-1.75,1.84A1.72,1.72,0,0,0,205.93,113.11Z" style="fill: rgb(38, 50, 56); transform-origin: 204.208px 114.117px;" id="elkb9jduu6u5n" class="animable"></path><path d="M211.78,112.69v-4.37h1.43v4.31c0,1.59.72,2.28,2,2.28s2-.69,2-2.28v-4.31h1.42v4.37a3.39,3.39,0,1,1-6.78,0Z" style="fill: rgb(38, 50, 56); transform-origin: 215.205px 112.2px;" id="elyhfkl3lw2g" class="animable"></path><path d="M226.71,113.11a2.88,2.88,0,0,1-3,3,2.44,2.44,0,0,1-1.89-.8v2.87h-1.38v-8.06h1.32v.78a2.41,2.41,0,0,1,2-.84A2.87,2.87,0,0,1,226.71,113.11Zm-1.4,0a1.76,1.76,0,1,0-1.75,1.84A1.72,1.72,0,0,0,225.31,113.11Z" style="fill: rgb(38, 50, 56); transform-origin: 223.578px 114.117px;" id="elrrlegl8cg0q" class="animable"></path><path d="M230.66,112.19a4.2,4.2,0,0,1,7.22-2.69l-.93.88a2.72,2.72,0,0,0-2.07-.91,2.72,2.72,0,1,0,0,5.44A2.7,2.7,0,0,0,237,114l.93.89a4.2,4.2,0,0,1-7.22-2.69Z" style="fill: rgb(38, 50, 56); transform-origin: 234.295px 112.195px;" id="eloypc5ud16rk" class="animable"></path><path d="M242.55,110.09v1.31l-.32,0a1.62,1.62,0,0,0-1.72,1.83v2.86h-1.38v-5.91h1.31V111A2.33,2.33,0,0,1,242.55,110.09Z" style="fill: rgb(38, 50, 56); transform-origin: 240.84px 113.083px;" id="elf16g2w2tzrd" class="animable"></path><path d="M249.2,113.55h-4.64a1.8,1.8,0,0,0,1.91,1.42,2.1,2.1,0,0,0,1.61-.65l.74.86a3.32,3.32,0,0,1-5.64-2.07,2.93,2.93,0,0,1,3-3,2.88,2.88,0,0,1,3,3C249.22,113.25,249.21,113.42,249.2,113.55Zm-4.65-.92h3.35a1.61,1.61,0,0,0-1.67-1.44A1.63,1.63,0,0,0,244.55,112.63Z" style="fill: rgb(38, 50, 56); transform-origin: 246.194px 113.123px;" id="el5ost5hd7mgk" class="animable"></path><path d="M256.33,107.85v8.21H255v-.76a2.46,2.46,0,0,1-2,.84,3,3,0,0,1,0-6,2.41,2.41,0,0,1,1.9.79v-3ZM255,113.11a1.76,1.76,0,1,0-1.76,1.84A1.73,1.73,0,0,0,255,113.11Z" style="fill: rgb(38, 50, 56); transform-origin: 253.165px 111.997px;" id="elm1ehwv1dfg" class="animable"></path><path d="M258,108.35a.85.85,0,0,1,.89-.83.82.82,0,0,1,.88.8.89.89,0,0,1-1.77,0Zm.19,1.8h1.38v5.91h-1.38Z" style="fill: rgb(38, 50, 56); transform-origin: 258.885px 111.789px;" id="elnna4yqrd5jk" class="animable"></path><path d="M264.9,115.74a2.14,2.14,0,0,1-1.33.4,1.82,1.82,0,0,1-2-2V111.3h-1v-1.1h1v-1.35h1.39v1.35h1.58v1.1h-1.58v2.81c0,.58.28.89.82.89a1.28,1.28,0,0,0,.77-.24Z" style="fill: rgb(38, 50, 56); transform-origin: 262.735px 112.5px;" id="el5hgvnswfo3d" class="animable"></path><path d="M265.36,115.47l.54-1A3.86,3.86,0,0,0,268,115c.88,0,1.24-.24,1.24-.65,0-1.13-3.65-.07-3.65-2.43,0-1.11,1-1.84,2.6-1.84a4.68,4.68,0,0,1,2.21.51l-.53,1.05a3.25,3.25,0,0,0-1.69-.45c-.84,0-1.24.28-1.24.67,0,1.19,3.65.13,3.65,2.44,0,1.11-1,1.83-2.68,1.83A4.69,4.69,0,0,1,265.36,115.47Z" style="fill: rgb(38, 50, 56); transform-origin: 267.975px 113.106px;" id="eld6llatfojh" class="animable"></path><path d="M198,152.78a3.52,3.52,0,1,1,3.51-3.51A3.52,3.52,0,0,1,198,152.78Zm0-6a2.52,2.52,0,1,0,2.51,2.52A2.52,2.52,0,0,0,198,146.75Z" style="fill: rgb(38, 50, 56); transform-origin: 197.99px 149.26px;" id="ellfttzbi06qq" class="animable"></path><path d="M195.94,155.15a3.52,3.52,0,0,1-1.24-6.81l.36.94a2.52,2.52,0,1,0,3.36,2.82l1,.18A3.53,3.53,0,0,1,195.94,155.15Z" style="fill: rgb(38, 50, 56); transform-origin: 195.926px 151.745px;" id="elewpk9f6cwah" class="animable"></path><path d="M193.93,157.2a3.51,3.51,0,0,1-1.24-6.8l.35.93a2.55,2.55,0,0,0-1.63,2.36,2.52,2.52,0,0,0,5,.46l1,.19A3.51,3.51,0,0,1,193.93,157.2Z" style="fill: rgb(38, 50, 56); transform-origin: 193.906px 153.8px;" id="eljq2rfrizlz" class="animable"></path><path d="M207.34,151.43a3.49,3.49,0,0,1,6-2.24l-.77.73a2.26,2.26,0,0,0-1.72-.76,2.27,2.27,0,1,0,0,4.53,2.26,2.26,0,0,0,1.72-.76l.77.73a3.48,3.48,0,0,1-6-2.23Z" style="fill: rgb(38, 50, 56); transform-origin: 210.34px 151.432px;" id="elx4tw061t9zj" class="animable"></path><path d="M220.22,148.21v6.44H219v-2.76h-3.33v2.76H214.5v-6.44h1.19v2.66H219v-2.66Z" style="fill: rgb(38, 50, 56); transform-origin: 217.36px 151.43px;" id="elqc77l0d7p28" class="animable"></path><path d="M221.49,151.43a3.47,3.47,0,1,1,3.47,3.31A3.3,3.3,0,0,1,221.49,151.43Zm5.74,0a2.27,2.27,0,1,0-2.27,2.26A2.2,2.2,0,0,0,227.23,151.43Z" style="fill: rgb(38, 50, 56); transform-origin: 224.956px 151.272px;" id="elvxk3hd4qm2" class="animable"></path><path d="M229.25,151.43a3.47,3.47,0,1,1,3.47,3.31A3.29,3.29,0,0,1,229.25,151.43Zm5.73,0a2.27,2.27,0,1,0-2.26,2.26A2.2,2.2,0,0,0,235,151.43Z" style="fill: rgb(38, 50, 56); transform-origin: 232.716px 151.272px;" id="elxa8a87xkcx" class="animable"></path><path d="M236.92,154l.41-.93a3.63,3.63,0,0,0,2.13.71c1,0,1.42-.36,1.42-.84,0-1.39-3.82-.48-3.82-2.87,0-1,.82-1.92,2.59-1.92a4,4,0,0,1,2.14.57l-.37.93a3.51,3.51,0,0,0-1.78-.51c-1,0-1.4.39-1.4.87,0,1.37,3.82.48,3.82,2.85,0,1-.84,1.91-2.6,1.91A4.13,4.13,0,0,1,236.92,154Z" style="fill: rgb(38, 50, 56); transform-origin: 239.49px 151.461px;" id="elmmidj2x1tg" class="animable"></path><path d="M248.08,153.65v1h-4.83v-6.44H248v1h-3.5v1.68h3.11v1h-3.11v1.78Z" style="fill: rgb(38, 50, 56); transform-origin: 245.665px 151.43px;" id="elvfi4v75et6r" class="animable"></path><path d="M256.14,153.16h-3.22l-.64,1.49h-1.23l2.9-6.44h1.18l2.9,6.44h-1.25Zm-.4-.94-1.21-2.82-1.21,2.82Z" style="fill: rgb(38, 50, 56); transform-origin: 254.54px 151.43px;" id="eli5469yuiqha" class="animable"></path><path d="M264.77,154.65v-4.27l-2.12,3.53h-.54L260,150.43v4.22h-1.14v-6.44h1l2.56,4.27,2.51-4.27h1v6.44Z" style="fill: rgb(38, 50, 56); transform-origin: 262.395px 151.43px;" id="ele3gx11pqwpn" class="animable"></path><path d="M267.19,151.43a3.47,3.47,0,1,1,3.47,3.31A3.29,3.29,0,0,1,267.19,151.43Zm5.73,0a2.26,2.26,0,1,0-2.26,2.26A2.19,2.19,0,0,0,272.92,151.43Z" style="fill: rgb(38, 50, 56); transform-origin: 270.656px 151.272px;" id="eldwkgln2zwgl" class="animable"></path><path d="M275.35,151.84v-3.63h1.2v3.59c0,1.32.59,1.89,1.63,1.89s1.63-.57,1.63-1.89v-3.59H281v3.63a2.82,2.82,0,1,1-5.64,0Z" style="fill: rgb(38, 50, 56); transform-origin: 278.175px 151.435px;" id="elepa0qwm14v" class="animable"></path><path d="M288.39,148.21v6.44h-1l-3.55-4.36v4.36h-1.19v-6.44h1l3.56,4.36v-4.36Z" style="fill: rgb(38, 50, 56); transform-origin: 285.52px 151.43px;" id="el3t6kc4qlm0l" class="animable"></path><path d="M291.43,149.22H289.3v-1h5.46v1h-2.13v5.43h-1.2Z" style="fill: rgb(38, 50, 56); transform-origin: 292.03px 151.435px;" id="elsn5rtj3y2zc" class="animable"></path><path d="M298.12,152.13a7.92,7.92,0,0,1,1.12-4.31h1.1a9,9,0,0,0,0,8.61h-1.1A7.93,7.93,0,0,1,298.12,152.13Z" style="fill: rgb(38, 50, 56); transform-origin: 299.228px 152.125px;" id="elpcpet1uy1dl" class="animable"></path><path d="M307,152.93l.77.73a3.24,3.24,0,0,1-2.55,1.08,3.3,3.3,0,0,1-3.31-2.36h-1.05v-.64h.93c0-.1,0-.2,0-.31s0-.21,0-.31h-.93v-.65h1.05a3.29,3.29,0,0,1,3.31-2.35,3.23,3.23,0,0,1,2.55,1.07l-.77.73a2.26,2.26,0,0,0-1.72-.76,2.22,2.22,0,0,0-2.11,1.31h2.64v.65H303a2.41,2.41,0,0,0,0,.62h2.82v.64h-2.64a2.2,2.2,0,0,0,2.11,1.31A2.26,2.26,0,0,0,307,152.93Z" style="fill: rgb(38, 50, 56); transform-origin: 304.315px 151.43px;" id="elj4oc91h1hgq" class="animable"></path><path d="M308.23,156.43a9,9,0,0,0,0-8.61h1.09a8.77,8.77,0,0,1,0,8.61Z" style="fill: rgb(38, 50, 56); transform-origin: 309.34px 152.125px;" id="elhzv11u6ww5q" class="animable"></path><rect x="240.75" y="168.25" width="41.7" height="39.98" rx="4.45" style="fill: rgb(144, 202, 249); transform-origin: 261.6px 188.24px;" id="el4abir8bjb3j" class="animable"></rect><path d="M260.29,191.33v1.87h-8.75v-1.48l4.72-4.47c1.15-1.1,1.35-1.8,1.35-2.46,0-1.09-.74-1.71-2.2-1.71a3.37,3.37,0,0,0-2.78,1.23l-1.54-1.18a5.47,5.47,0,0,1,4.51-2c2.57,0,4.23,1.31,4.23,3.41,0,1.15-.32,2.2-2,3.75l-3.17,3Z" style="fill: rgb(255, 255, 255); transform-origin: 255.69px 187.162px;" id="elqhx1jip1di" class="animable"></path><path d="M261.51,187.26c0-3.89,2.14-6.1,4.95-6.1s5,2.21,5,6.1-2.14,6.11-5,6.11S261.51,191.16,261.51,187.26Zm7.7,0c0-2.86-1.12-4.18-2.75-4.18s-2.73,1.32-2.73,4.18,1.12,4.19,2.73,4.19S269.21,190.13,269.21,187.26Z" style="fill: rgb(255, 255, 255); transform-origin: 266.485px 187.265px;" id="elumz054x0m2" class="animable"></path><path d="M211.57,181.33V193.2h-2.2v-10h-2.51v-1.85Z" style="fill: rgb(38, 50, 56); transform-origin: 209.215px 187.265px;" id="elviqozkrda9" class="animable"></path><path d="M213.93,187.27c0-3.9,2.13-6.11,4.95-6.11s5,2.21,5,6.11-2.13,6.1-5,6.1S213.93,191.16,213.93,187.27Zm7.69,0c0-2.87-1.12-4.19-2.74-4.19s-2.73,1.32-2.73,4.19,1.12,4.18,2.73,4.18S221.62,190.13,221.62,187.27Z" style="fill: rgb(38, 50, 56); transform-origin: 218.905px 187.265px;" id="ely7krsf52s9s" class="animable"></path><path d="M232.06,208.73H199.25a5,5,0,0,1-4.95-4.95V172.7a5,5,0,0,1,4.95-4.95h32.81A5,5,0,0,1,237,172.7v31.08A5,5,0,0,1,232.06,208.73Zm-32.81-40a4,4,0,0,0-3.95,3.95v31.08a4,4,0,0,0,3.95,3.95h32.81a4,4,0,0,0,3.95-3.95V172.7a4,4,0,0,0-3.95-3.95Z" style="fill: rgb(224, 224, 224); transform-origin: 215.65px 188.24px;" id="elrck9xdv4yeh" class="animable"></path><path d="M324,208.73h-32.8a5,5,0,0,1-4.95-4.95V172.7a5,5,0,0,1,4.95-4.95H324a5,5,0,0,1,4.95,4.95v31.08A5,5,0,0,1,324,208.73Zm-32.8-40a4,4,0,0,0-3.95,3.95v31.08a4,4,0,0,0,3.95,3.95H324a4,4,0,0,0,3.95-3.95V172.7a4,4,0,0,0-3.95-3.95Z" style="fill: rgb(224, 224, 224); transform-origin: 307.6px 188.24px;" id="elvv8sxb4qmz" class="animable"></path><path d="M306.27,189.55c0,2.09-1.51,3.82-4.69,3.82a7.38,7.38,0,0,1-4.46-1.38l.93-1.71a5.63,5.63,0,0,0,3.49,1.17c1.58,0,2.51-.69,2.51-1.81s-.73-1.85-3.19-1.85H298l.61-6.46h7v1.85h-5.1l-.26,2.75h1.14C304.87,185.93,306.27,187.45,306.27,189.55Z" style="fill: rgb(38, 50, 56); transform-origin: 301.695px 187.351px;" id="elxks5gzqhyb8" class="animable"></path><path d="M307.54,187.26c0-3.89,2.14-6.1,4.95-6.1s5,2.21,5,6.1-2.14,6.11-5,6.11S307.54,191.16,307.54,187.26Zm7.7,0c0-2.86-1.12-4.18-2.75-4.18s-2.73,1.32-2.73,4.18,1.12,4.19,2.73,4.19S315.24,190.13,315.24,187.26Z" style="fill: rgb(38, 50, 56); transform-origin: 312.515px 187.265px;" id="elvrp85yk6atq" class="animable"></path><path d="M278,255.35H245.2a5,5,0,0,1-4.95-4.95V219.31a5,5,0,0,1,4.95-4.94H278a5,5,0,0,1,4.95,4.94V250.4A5,5,0,0,1,278,255.35Zm-32.8-40a4,4,0,0,0-3.95,3.94V250.4a4,4,0,0,0,3.95,3.95H278A4,4,0,0,0,282,250.4V219.31a4,4,0,0,0-3.95-3.94Z" style="fill: rgb(224, 224, 224); transform-origin: 261.6px 234.86px;" id="elb20s91ektji" class="animable"></path><path d="M254.63,238v1.86h-8.75v-1.47l4.72-4.48c1.15-1.1,1.35-1.79,1.35-2.46,0-1.08-.74-1.71-2.2-1.71a3.35,3.35,0,0,0-2.78,1.24l-1.54-1.19a5.49,5.49,0,0,1,4.51-2c2.57,0,4.23,1.3,4.23,3.4,0,1.16-.32,2.21-2,3.75L249,238Z" style="fill: rgb(38, 50, 56); transform-origin: 250.03px 233.822px;" id="elq6z2l70rh3" class="animable"></path><path d="M255.85,233.88c0-3.9,2.13-6.1,5-6.1s5,2.2,5,6.1-2.14,6.1-5,6.1S255.85,237.78,255.85,233.88Zm7.7,0c0-2.86-1.12-4.19-2.75-4.19s-2.73,1.33-2.73,4.19,1.12,4.19,2.73,4.19S263.55,236.74,263.55,233.88Z" style="fill: rgb(38, 50, 56); transform-origin: 260.85px 233.88px;" id="elqxcj6kvxj7e" class="animable"></path><path d="M267.25,233.88c0-3.9,2.14-6.1,4.95-6.1s5,2.2,5,6.1-2.13,6.1-5,6.1S267.25,237.78,267.25,233.88Zm7.7,0c0-2.86-1.12-4.19-2.75-4.19s-2.72,1.33-2.72,4.19,1.11,4.19,2.72,4.19S275,236.74,275,233.88Z" style="fill: rgb(38, 50, 56); transform-origin: 272.225px 233.88px;" id="elsmi9im8zqf" class="animable"></path><path d="M205.87,228v11.86h-2.21v-10h-2.51V228Z" style="fill: rgb(38, 50, 56); transform-origin: 203.51px 233.93px;" id="elkll4vwy4pfp" class="animable"></path><path d="M208.22,233.88c0-3.9,2.14-6.1,4.95-6.1s5,2.2,5,6.1-2.14,6.1-5,6.1S208.22,237.78,208.22,233.88Zm7.7,0c0-2.86-1.12-4.19-2.75-4.19s-2.73,1.33-2.73,4.19,1.12,4.19,2.73,4.19S215.92,236.74,215.92,233.88Z" style="fill: rgb(38, 50, 56); transform-origin: 213.195px 233.88px;" id="el3qxfhc4yh7k" class="animable"></path><path d="M219.63,233.88c0-3.9,2.13-6.1,5-6.1s5,2.2,5,6.1-2.13,6.1-5,6.1S219.63,237.78,219.63,233.88Zm7.69,0c0-2.86-1.12-4.19-2.74-4.19s-2.73,1.33-2.73,4.19,1.12,4.19,2.73,4.19S227.32,236.74,227.32,233.88Z" style="fill: rgb(38, 50, 56); transform-origin: 224.63px 233.88px;" id="el6m8tzbj24fu" class="animable"></path><path d="M232.06,255.35H199.25a5,5,0,0,1-4.95-4.95V219.31a5,5,0,0,1,4.95-4.94h32.81a5,5,0,0,1,4.95,4.94V250.4A5,5,0,0,1,232.06,255.35Zm-32.81-40a4,4,0,0,0-3.95,3.94V250.4a4,4,0,0,0,3.95,3.95h32.81A4,4,0,0,0,236,250.4V219.31a4,4,0,0,0-3.95-3.94Z" style="fill: rgb(224, 224, 224); transform-origin: 215.655px 234.86px;" id="elhjz2mr8dbu" class="animable"></path><path d="M324,255.35h-32.8a5,5,0,0,1-4.95-4.95V219.31a5,5,0,0,1,4.95-4.94H324a5,5,0,0,1,4.95,4.94V250.4A5,5,0,0,1,324,255.35Zm-32.8-40a4,4,0,0,0-3.95,3.94V250.4a4,4,0,0,0,3.95,3.95H324a4,4,0,0,0,3.95-3.95V219.31a4,4,0,0,0-3.95-3.94Z" style="fill: rgb(224, 224, 224); transform-origin: 307.6px 234.86px;" id="el03z6h85sva6v" class="animable"></path><path d="M300.71,236.17c0,2.08-1.51,3.81-4.7,3.81a7.43,7.43,0,0,1-4.45-1.37l.93-1.71a5.61,5.61,0,0,0,3.49,1.17c1.58,0,2.51-.7,2.51-1.82s-.73-1.84-3.19-1.84h-2.86l.61-6.46h7v1.84h-5.11l-.25,2.75h1.13C299.3,232.54,300.71,234.07,300.71,236.17Z" style="fill: rgb(38, 50, 56); transform-origin: 296.135px 233.966px;" id="elcw6d4qaraqs" class="animable"></path><path d="M302,233.88c0-3.9,2.13-6.1,4.95-6.1s5,2.2,5,6.1-2.14,6.1-5,6.1S302,237.78,302,233.88Zm7.7,0c0-2.86-1.12-4.19-2.75-4.19s-2.73,1.33-2.73,4.19,1.12,4.19,2.73,4.19S309.68,236.74,309.68,233.88Z" style="fill: rgb(38, 50, 56); transform-origin: 306.975px 233.88px;" id="elrv2cxk9ttr" class="animable"></path><path d="M313.38,233.88c0-3.9,2.14-6.1,4.95-6.1s5,2.2,5,6.1-2.14,6.1-5,6.1S313.38,237.78,313.38,233.88Zm7.7,0c0-2.86-1.12-4.19-2.75-4.19s-2.73,1.33-2.73,4.19,1.12,4.19,2.73,4.19S321.08,236.74,321.08,233.88Z" style="fill: rgb(38, 50, 56); transform-origin: 318.355px 233.88px;" id="elb56mzjg3byi" class="animable"></path><path d="M191.26,287.41l.41-.93a3.56,3.56,0,0,0,2.13.71c1,0,1.42-.36,1.42-.84,0-1.38-3.82-.47-3.82-2.87,0-1,.82-1.92,2.59-1.92a4,4,0,0,1,2.14.57l-.37.93a3.61,3.61,0,0,0-1.78-.51c-1,0-1.4.39-1.4.88,0,1.37,3.82.48,3.82,2.84,0,1-.84,1.91-2.6,1.91A4.13,4.13,0,0,1,191.26,287.41Z" style="fill: rgb(38, 50, 56); transform-origin: 193.83px 284.871px;" id="el55cdnopg1jy" class="animable"></path><path d="M202.42,287.09v1h-4.83v-6.44h4.7v1h-3.5v1.67h3.11v1h-3.11v1.78Z" style="fill: rgb(38, 50, 56); transform-origin: 200.005px 284.87px;" id="elolwvpvphm9" class="animable"></path><path d="M203.76,281.65H205v5.43h3.36v1h-4.56Z" style="fill: rgb(38, 50, 56); transform-origin: 206.06px 284.865px;" id="elibge5fo995" class="animable"></path><path d="M214.11,287.09v1h-4.83v-6.44H214v1h-3.51v1.67h3.11v1h-3.11v1.78Z" style="fill: rgb(38, 50, 56); transform-origin: 211.695px 284.87px;" id="elk9vhtqo6vw" class="animable"></path><path d="M215,284.87a3.48,3.48,0,0,1,6-2.23l-.78.72a2.25,2.25,0,0,0-1.72-.75,2.27,2.27,0,1,0,1.72,3.76l.78.74a3.49,3.49,0,0,1-6-2.24Z" style="fill: rgb(38, 50, 56); transform-origin: 218px 284.868px;" id="el07tcu85i13dx" class="animable"></path><path d="M223.35,282.66h-2.14v-1h5.47v1h-2.14v5.43h-1.19Z" style="fill: rgb(38, 50, 56); transform-origin: 223.945px 284.875px;" id="elxrh76afnk3r" class="animable"></path><path d="M235.51,283.94c0,1.42-1,2.29-2.74,2.29h-1.45v1.86h-1.2v-6.44h2.65C234.47,281.65,235.51,282.52,235.51,283.94Zm-1.2,0c0-.81-.54-1.28-1.59-1.28h-1.4v2.56h1.4C233.77,285.22,234.31,284.75,234.31,283.94Z" style="fill: rgb(38, 50, 56); transform-origin: 232.815px 284.87px;" id="elv2cpypvd4s7" class="animable"></path><path d="M240.57,286.6h-3.22l-.64,1.49h-1.23l2.9-6.44h1.18l2.91,6.44h-1.26Zm-.4-.94L239,282.85l-1.21,2.81Z" style="fill: rgb(38, 50, 56); transform-origin: 238.975px 284.87px;" id="ellnbjwae4ma" class="animable"></path><path d="M245.68,285.82v2.27h-1.2v-2.25L242,281.65h1.28l1.89,3.14,1.9-3.14h1.18Z" style="fill: rgb(38, 50, 56); transform-origin: 245.125px 284.87px;" id="eltptbp1piry8" class="animable"></path><path d="M254.81,288.09v-4.27l-2.11,3.54h-.54L250,283.88v4.21H248.9v-6.44h1l2.56,4.27,2.51-4.27h1v6.44Z" style="fill: rgb(38, 50, 56); transform-origin: 252.435px 284.87px;" id="elald0g54q0tf" class="animable"></path><path d="M262.52,287.09v1h-4.83v-6.44h4.7v1h-3.5v1.67H262v1h-3.11v1.78Z" style="fill: rgb(38, 50, 56); transform-origin: 260.105px 284.87px;" id="elg7tqz9cowxs" class="animable"></path><path d="M269.58,281.65v6.44h-1l-3.55-4.36v4.36h-1.19v-6.44h1L268.4,286v-4.36Z" style="fill: rgb(38, 50, 56); transform-origin: 266.71px 284.865px;" id="elka7j3k7gpvl" class="animable"></path><path d="M272.62,282.66h-2.13v-1H276v1h-2.13v5.43h-1.2Z" style="fill: rgb(38, 50, 56); transform-origin: 273.245px 284.875px;" id="elnii30ct1ppr" class="animable"></path><path d="M285.32,288.09v-4.27l-2.12,3.54h-.53l-2.12-3.48v4.21H279.4v-6.44h1l2.55,4.27,2.52-4.27h1v6.44Z" style="fill: rgb(38, 50, 56); transform-origin: 282.935px 284.87px;" id="elnrrs11r7dzb" class="animable"></path><path d="M293,287.09v1h-4.84v-6.44h4.71v1h-3.51v1.67h3.11v1h-3.11v1.78Z" style="fill: rgb(38, 50, 56); transform-origin: 290.58px 284.87px;" id="el8o7rm4xvwfn" class="animable"></path><path d="M295.67,282.66h-2.13v-1H299v1h-2.13v5.43h-1.2Z" style="fill: rgb(38, 50, 56); transform-origin: 296.27px 284.875px;" id="eln27hs5lgk2" class="animable"></path><path d="M305.63,281.65v6.44h-1.2v-2.76H301.1v2.76h-1.19v-6.44h1.19v2.66h3.33v-2.66Z" style="fill: rgb(38, 50, 56); transform-origin: 302.77px 284.87px;" id="elsuuyzvuzbt" class="animable"></path><path d="M306.9,284.87a3.47,3.47,0,1,1,3.47,3.31A3.3,3.3,0,0,1,306.9,284.87Zm5.74,0a2.27,2.27,0,1,0-2.27,2.27A2.2,2.2,0,0,0,312.64,284.87Z" style="fill: rgb(38, 50, 56); transform-origin: 310.366px 284.712px;" id="elzizk8wf4mys" class="animable"></path><path d="M315.12,281.65h2.81a3.23,3.23,0,1,1,0,6.44h-2.81Zm2.76,5.43a2.21,2.21,0,1,0,0-4.42h-1.57v4.42Z" style="fill: rgb(38, 50, 56); transform-origin: 318.267px 284.87px;" id="eldpvakcmyy57" class="animable"></path><path d="M331.44,336.27H191.63a5.91,5.91,0,0,1-5.9-5.9V304a5.91,5.91,0,0,1,5.9-5.9H331.44a5.91,5.91,0,0,1,5.9,5.9v26.38A5.91,5.91,0,0,1,331.44,336.27ZM191.63,299.09a4.91,4.91,0,0,0-4.9,4.9v26.38a4.91,4.91,0,0,0,4.9,4.9H331.44a4.91,4.91,0,0,0,4.9-4.9V304a4.91,4.91,0,0,0-4.9-4.9Z" style="fill: rgb(224, 224, 224); transform-origin: 261.535px 317.185px;" id="el7ki0nj9chxe" class="animable"></path><rect x="200.38" y="310.18" width="22.96" height="17.98" style="fill: rgb(144, 202, 249); transform-origin: 211.86px 319.17px;" id="elh39cdm3qo2p" class="animable"></rect><path d="M237.09,321l-1.47-2.07L234.16,321H233l2-2.78-1.91-2.66h1.14l1.39,1.93,1.37-1.93h1.1l-1.91,2.63,2,2.81Z" style="fill: rgb(38, 50, 56); transform-origin: 235.59px 318.28px;" id="el4vq25au1uf" class="animable"></path><path d="M242.36,321l-1.48-2.07L239.42,321h-1.15l2-2.78-1.91-2.66h1.14l1.39,1.93,1.37-1.93h1.1l-1.9,2.63,2,2.81Z" style="fill: rgb(38, 50, 56); transform-origin: 240.865px 318.28px;" id="el5ohsekw0hbj" class="animable"></path><path d="M247.62,321l-1.48-2.07L244.68,321h-1.15l2-2.78-1.91-2.66h1.14l1.39,1.93,1.38-1.93h1.09l-1.9,2.63,2,2.81Z" style="fill: rgb(38, 50, 56); transform-origin: 246.125px 318.28px;" id="elzl5c31891d" class="animable"></path><path d="M255.14,321l-1.48-2.07L252.2,321h-1.14l2-2.78-1.91-2.66h1.15l1.39,1.93,1.37-1.93h1.1l-1.91,2.63,2.05,2.81Z" style="fill: rgb(38, 50, 56); transform-origin: 253.68px 318.28px;" id="elniogayhhlz" class="animable"></path><path d="M260.4,321l-1.47-2.07L257.47,321h-1.15l2-2.78-1.91-2.66h1.14l1.39,1.93,1.37-1.93h1.1l-1.9,2.63,2,2.81Z" style="fill: rgb(38, 50, 56); transform-origin: 258.915px 318.28px;" id="elqbbep1xo9rq" class="animable"></path><path d="M265.67,321l-1.48-2.07L262.73,321h-1.15l2-2.78-1.91-2.66h1.14l1.39,1.93,1.38-1.93h1.09l-1.9,2.63,2,2.81Z" style="fill: rgb(38, 50, 56); transform-origin: 264.175px 318.28px;" id="elyf0k33ah0j" class="animable"></path><path d="M273.19,321l-1.48-2.07L270.25,321H269.1l2-2.78-1.91-2.66h1.14l1.39,1.93,1.38-1.93h1.09l-1.9,2.63,2,2.81Z" style="fill: rgb(38, 50, 56); transform-origin: 271.695px 318.28px;" id="ele9mg0ev0tvf" class="animable"></path><path d="M278.45,321,277,318.93,275.52,321h-1.15l2-2.78-1.91-2.66h1.15l1.39,1.93,1.37-1.93h1.1l-1.91,2.63,2.05,2.81Z" style="fill: rgb(38, 50, 56); transform-origin: 276.99px 318.28px;" id="elb6e85zquska" class="animable"></path><path d="M283.71,321l-1.47-2.07L280.78,321h-1.15l2-2.78-1.91-2.66h1.14l1.39,1.93,1.37-1.93h1.1l-1.9,2.63,2,2.81Z" style="fill: rgb(38, 50, 56); transform-origin: 282.225px 318.28px;" id="elg5n6h3eqahi" class="animable"></path><path d="M289.3,315.56V321h-1v-4.59h-1.15v-.85Z" style="fill: rgb(38, 50, 56); transform-origin: 288.225px 318.28px;" id="el6wzwz621yub" class="animable"></path><path d="M294.32,320.14V321h-4v-.68l2.16-2.05c.53-.5.62-.82.62-1.13,0-.49-.34-.78-1-.78a1.52,1.52,0,0,0-1.27.57l-.71-.55a2.53,2.53,0,0,1,2.07-.9c1.18,0,1.94.6,1.94,1.56a2.2,2.2,0,0,1-.9,1.72l-1.46,1.38Z" style="fill: rgb(38, 50, 56); transform-origin: 292.22px 318.238px;" id="elncs4ruqv06" class="animable"></path><path d="M298.76,319.37c0,.91-.69,1.71-2.15,1.71a3.49,3.49,0,0,1-2.05-.63l.44-.79a2.52,2.52,0,0,0,1.59.54c.72,0,1.15-.32,1.15-.83s-.36-.8-1.18-.8h-.5v-.69l1.24-1.47h-2.47v-.85h3.7v.68l-1.32,1.57A1.55,1.55,0,0,1,298.76,319.37Z" style="fill: rgb(38, 50, 56); transform-origin: 296.66px 318.32px;" id="el1va8vermcyd" class="animable"></path><path d="M304.26,319.76h-1V321h-1v-1.24h-3v-.7l2.68-3.5h1.08l-2.53,3.35h1.78v-1.1h.95v1.1h1Z" style="fill: rgb(38, 50, 56); transform-origin: 301.76px 318.28px;" id="ell74vqtxxch" class="animable"></path><path d="M323.2,320.34h0a.5.5,0,0,1-.37-.17l-3.42-3.78a.5.5,0,1,1,.74-.67l3.05,3.37,3.06-3.37a.5.5,0,0,1,.74.67l-3.43,3.78A.47.47,0,0,1,323.2,320.34Z" style="fill: rgb(224, 224, 224); transform-origin: 323.185px 317.937px;" id="elcm85ph92k84" class="animable"></path><path d="M200.73,383.21a2.8,2.8,0,0,1,3-2.83,2.77,2.77,0,0,1,2.17.92l-.66.62a1.94,1.94,0,0,0-1.47-.65,1.94,1.94,0,1,0,0,3.87,1.9,1.9,0,0,0,1.47-.65l.66.63a3,3,0,0,1-5.12-1.91Z" style="fill: rgb(224, 224, 224); transform-origin: 203.315px 383.189px;" id="el602ben98oq4" class="animable"></path><path d="M210.29,384.68h-2.75L207,386h-1.05l2.48-5.5h1l2.49,5.5h-1.07Zm-.34-.8-1-2.4-1,2.4Z" style="fill: rgb(224, 224, 224); transform-origin: 208.935px 383.25px;" id="elldat34hbfuq" class="animable"></path><path d="M217.5,380.46V386h-.85l-3-3.73V386h-1v-5.5h.84l3,3.72v-3.72Z" style="fill: rgb(224, 224, 224); transform-origin: 215.075px 383.23px;" id="el4g560hpsjf2" class="animable"></path><path d="M218.58,383.21a3,3,0,0,1,5.13-1.91l-.66.62a2,2,0,0,0-1.47-.65,1.94,1.94,0,1,0,0,3.87,1.93,1.93,0,0,0,1.47-.65l.66.63a2.85,2.85,0,0,1-2.19.92A2.81,2.81,0,0,1,218.58,383.21Z" style="fill: rgb(224, 224, 224); transform-origin: 221.145px 383.225px;" id="els4to4gshqc" class="animable"></path><path d="M228.82,385.1V386h-4.13v-5.5h4v.85h-3v1.43h2.66v.84h-2.66v1.52Z" style="fill: rgb(224, 224, 224); transform-origin: 226.755px 383.25px;" id="eloygr6xs86vg" class="animable"></path><path d="M230,380.46h1v4.63h2.87V386H230Z" style="fill: rgb(224, 224, 224); transform-origin: 231.935px 383.23px;" id="elx4vfkk9ojvb" class="animable"></path><rect x="255.41" y="367.2" width="78.38" height="33.07" rx="7.09" style="fill: rgb(144, 202, 249); transform-origin: 294.6px 383.735px;" id="el5ofcpegr6iv" class="animable"></rect><path d="M278.73,380.91h-2V380h5.08v.94h-2v5h-1.12Z" style="fill: rgb(255, 255, 255); transform-origin: 279.27px 382.97px;" id="ely9botnayf7" class="animable"></path><path d="M282.15,383a3.23,3.23,0,1,1,3.23,3.08A3.07,3.07,0,0,1,282.15,383Zm5.34,0a2.11,2.11,0,1,0-2.11,2.11A2,2,0,0,0,287.49,383Z" style="fill: rgb(255, 255, 255); transform-origin: 285.377px 382.852px;" id="elwtar6e1f7m" class="animable"></path><path d="M294.8,382.1c0,1.32-1,2.13-2.55,2.13H290.9V386h-1.11v-6h2.46C293.83,380,294.8,380.77,294.8,382.1Zm-1.12,0c0-.76-.5-1.19-1.48-1.19h-1.3v2.38h1.3C293.18,383.29,293.68,382.85,293.68,382.1Z" style="fill: rgb(255, 255, 255); transform-origin: 292.295px 383px;" id="eln5vputylof" class="animable"></path><path d="M298.31,383.35V380h1.11v3.33c0,1.24.56,1.77,1.53,1.77s1.51-.53,1.51-1.77V380h1.1v3.38a2.63,2.63,0,1,1-5.25,0Z" style="fill: rgb(255, 255, 255); transform-origin: 300.935px 383.086px;" id="elxn22kbh48pp" class="animable"></path><path d="M310.13,382.1c0,1.32-1,2.13-2.55,2.13h-1.36V386h-1.11v-6h2.47C309.15,380,310.13,380.77,310.13,382.1Zm-1.12,0c0-.76-.51-1.19-1.48-1.19h-1.31v2.38h1.31C308.5,383.29,309,382.85,309,382.1Z" style="fill: rgb(255, 255, 255); transform-origin: 307.62px 383px;" id="elfg88hgz1q1a" class="animable"></path><path d="M344.29,355.55c0,.15-37.77.26-84.35.26s-84.37-.11-84.37-.26,37.77-.26,84.37-.26S344.29,355.41,344.29,355.55Z" style="fill: rgb(224, 224, 224); transform-origin: 259.93px 355.55px;" id="el5jvxpk8tlg8" class="animable"></path></g><g id="freepik--Charater--inject-333" class="animable" style="transform-origin: 128.409px 276.037px;"><path d="M90.39,159.57l-.56-46C89.32,102.13,95.55,92.3,107,92.1l1.06.05a20.47,20.47,0,0,1,19.61,19.65c.39,9.91.69,20.87.41,26.17-.59,11-11.64,12.23-11.64,12.23s-.07,6.68-.06,9.9l-6.46,5.34h0Z" style="fill: rgb(255, 191, 157); transform-origin: 108.995px 128.77px;" id="el9jgsnu9adxp" class="animable"></path><path d="M116.44,150.2a26.53,26.53,0,0,1-14.12-4.82s3.1,8.4,14.09,7.86Z" style="fill: rgb(255, 154, 108); transform-origin: 109.38px 149.322px;" id="elebltody0d8v" class="animable"></path><path d="M124.18,121.64a1.57,1.57,0,0,1-1.58,1.52,1.5,1.5,0,0,1-1.56-1.48,1.57,1.57,0,0,1,1.58-1.52A1.5,1.5,0,0,1,124.18,121.64Z" style="fill: rgb(38, 50, 56); transform-origin: 122.61px 121.66px;" id="el75vrkj71bmv" class="animable"></path><path d="M125.14,116.55c-.21.19-1.36-.74-3-.8s-3,.73-3.14.51.13-.45.69-.82a4.24,4.24,0,0,1,2.51-.67,4.18,4.18,0,0,1,2.41.89C125.08,116.08,125.24,116.46,125.14,116.55Z" style="fill: rgb(38, 50, 56); transform-origin: 122.066px 115.67px;" id="elv74h7lxoiq" class="animable"></path><path d="M108.76,121.27a1.57,1.57,0,0,1-1.58,1.51,1.5,1.5,0,0,1-1.56-1.48,1.59,1.59,0,0,1,1.58-1.52A1.51,1.51,0,0,1,108.76,121.27Z" style="fill: rgb(38, 50, 56); transform-origin: 107.19px 121.28px;" id="el2lq6svr4on9" class="animable"></path><path d="M108.59,116.25c-.21.2-1.36-.73-3-.79s-3,.73-3.13.51.13-.45.68-.83a4.37,4.37,0,0,1,2.52-.66,4.12,4.12,0,0,1,2.41.89C108.52,115.79,108.68,116.17,108.59,116.25Z" style="fill: rgb(38, 50, 56); transform-origin: 105.521px 115.377px;" id="elt6i2y6rm1j" class="animable"></path><path d="M114.1,129.47a10.62,10.62,0,0,1,2.76-.38c.43,0,.85-.1.93-.39a2.29,2.29,0,0,0-.23-1.29q-.56-1.59-1.14-3.33c-1.58-4.75-2.7-8.64-2.51-8.7s1.62,3.73,3.2,8.48c.38,1.17.74,2.28,1.08,3.35a2.49,2.49,0,0,1,.16,1.7,1.13,1.13,0,0,1-.74.6,3.37,3.37,0,0,1-.73.07A11.46,11.46,0,0,1,114.1,129.47Z" style="fill: rgb(38, 50, 56); transform-origin: 116.16px 122.499px;" id="elap8b7sadzg" class="animable"></path><path d="M109.35,111c-.25.42-1.87-.1-3.86-.22s-3.66.11-3.85-.34c-.08-.22.28-.59,1-.91a6.38,6.38,0,0,1,3-.46,6.28,6.28,0,0,1,2.88.89C109.16,110.38,109.46,110.8,109.35,111Z" style="fill: rgb(38, 50, 56); transform-origin: 105.501px 110.103px;" id="elhdteq8c8z7" class="animable"></path><path d="M125.42,111.59c-.36.37-1.72-.06-3.38-.12s-3.06.17-3.37-.24c-.13-.19.1-.57.72-.92a5.37,5.37,0,0,1,2.76-.55,5.17,5.17,0,0,1,2.67.84C125.4,111,125.58,111.41,125.42,111.59Z" style="fill: rgb(38, 50, 56); transform-origin: 122.055px 110.743px;" id="elleil5omad9" class="animable"></path><path d="M90.39,121.74c-.18-.09-7.45-2.55-7.52,5s7.49,6,7.51,5.82S90.39,121.74,90.39,121.74Z" style="fill: rgb(255, 191, 157); transform-origin: 86.631px 127.049px;" id="elm659dd7gb7p" class="animable"></path><path d="M88.11,129.66s-.13.09-.36.19a1.27,1.27,0,0,1-1,0,3.23,3.23,0,0,1-1.48-2.92,4.34,4.34,0,0,1,.39-1.87,1.51,1.51,0,0,1,1-1,.68.68,0,0,1,.77.37c.1.21,0,.36.09.37s.16-.12.11-.43a.8.8,0,0,0-.3-.47,1,1,0,0,0-.72-.2,1.84,1.84,0,0,0-1.38,1.15,4.53,4.53,0,0,0-.47,2.09c0,1.51.8,2.94,1.88,3.26a1.4,1.4,0,0,0,1.2-.18C88.09,129.84,88.13,129.67,88.11,129.66Z" style="fill: rgb(255, 154, 108); transform-origin: 86.4369px 126.978px;" id="ele2zc58wdyag" class="animable"></path><path d="M108.8,130.51c.26,0,.27,1.71,1.75,2.93s3.32,1,3.34,1.26-.41.34-1.19.36a4.32,4.32,0,0,1-2.78-.95,3.77,3.77,0,0,1-1.36-2.46C108.49,130.93,108.68,130.5,108.8,130.51Z" style="fill: rgb(38, 50, 56); transform-origin: 111.218px 132.785px;" id="el9dx7aou5x3t" class="animable"></path><path d="M142.84,101.91a1.76,1.76,0,0,0-.82-1,5.52,5.52,0,0,0-2.81-.49,15.84,15.84,0,0,1-6.86-1.8,7.79,7.79,0,0,0,2-1.4,4.72,4.72,0,0,0,1.41-4.68,1,1,0,0,0-.58-.72c-.49-.16-.92.32-1.26.69A4.07,4.07,0,0,1,130.12,94a6.67,6.67,0,0,1-2.85-.88l-.09-.1L126,91.88h0c-2.8-2.84-5.21-4.81-7.7-5.84-3.65-1.52-9.78-2.19-13.62-1.23s-7.3,4-7.88,7.94c-2.12-1.84-5.35-1.86-8-.84l-.07,0c-2.92,1-4.61,4.06-5.5,7,0,.16-.09.32-.14.49a11.52,11.52,0,0,1-4,3.78c-.29.16-.61.35-.65.68s.23.59.49.78a5.74,5.74,0,0,0,2.34,1,12.75,12.75,0,0,1-1,2c-.34.55-.74,1.21-.46,1.79a1.25,1.25,0,0,0,1.28.58,3.61,3.61,0,0,0,1.36-.6c-.33.77-.66,1.55-1,2.32a6.94,6.94,0,0,0,3.17-.17c.59,2.78,1,7.92,1.69,9.81,2,.06,2.48-.15,3.48.19,1.3.45.77,2.75,2.48,2.11.86-.32,2.22-3.57,2.52-4.45A42.78,42.78,0,0,0,97,101.11a13.81,13.81,0,0,1,4.3-3l-.13.12c3.08-1,6.57-2,9.47-.57,2.25,1.15,3.55,3.51,5.22,5.4a15.71,15.71,0,0,0,11.54,5.78c.4,3.32.46,8.75.59,11.85l2.71-6.17v0c.21-.36.39-.73.57-1.09l.06-.11v0c.28-.58.54-1.17.89-1.75l0,0A1.93,1.93,0,0,0,135.1,109a4.14,4.14,0,0,0-.92-1,3.06,3.06,0,0,0,2.91.79,2.4,2.4,0,0,0,1.72-2.35,2,2,0,0,0-1.2-1.65,6.86,6.86,0,0,0,3.93-.82C142.32,103.6,143.09,102.88,142.84,101.91Z" style="fill: rgb(38, 50, 56); transform-origin: 110.662px 104.073px;" id="el0gzpv87jj1h" class="animable"></path><path d="M100.29,94.05a9.55,9.55,0,0,0-1.12,1,8,8,0,0,0-1.73,3.63,14,14,0,0,0-.31,2.79c0,1,.05,2.1.12,3.24a28.77,28.77,0,0,1,0,3.61,13.79,13.79,0,0,1-.27,1.9,4,4,0,0,1-.8,1.84,1.66,1.66,0,0,1-1.56.5,2.46,2.46,0,0,1-1.38-.8,5.68,5.68,0,0,1-1-2.81l.23,0a9,9,0,0,1-1.37,2.29A3.25,3.25,0,0,1,89,112.41a2.18,2.18,0,0,1-1.13-.21,1.88,1.88,0,0,1-.76-.77,1.9,1.9,0,0,1-.22-1,1.37,1.37,0,0,1,.36-.85l.11.11a7.07,7.07,0,0,1-2.38,1.74,5.87,5.87,0,0,1-.73.28.91.91,0,0,1-.27.06,1.46,1.46,0,0,1,.25-.1c.17-.07.41-.16.72-.31a7.46,7.46,0,0,0,2.3-1.78l.11.11a1.42,1.42,0,0,0-.09,1.63,1.62,1.62,0,0,0,.69.68,2,2,0,0,0,1,.18,3,3,0,0,0,2-1.08,9.13,9.13,0,0,0,1.32-2.24l.16-.35.07.38a5.43,5.43,0,0,0,1,2.68,2.21,2.21,0,0,0,1.24.72,1.37,1.37,0,0,0,1.32-.43,3.71,3.71,0,0,0,.74-1.72A13.24,13.24,0,0,0,97,108.3a28.2,28.2,0,0,0,0-3.57c-.06-1.15-.12-2.24-.09-3.26a13.52,13.52,0,0,1,.35-2.83A7.74,7.74,0,0,1,99.1,95,4.44,4.44,0,0,1,100.29,94.05Z" style="fill: rgb(69, 90, 100); transform-origin: 92.135px 103.323px;" id="el170zco3azpg" class="animable"></path><path d="M134.19,105.14l-.09.07c-.07.06-.17.12-.28.2a3,3,0,0,1-.47.29,5.86,5.86,0,0,1-.67.35,9.74,9.74,0,0,1-4.72.79,12.53,12.53,0,0,1-6.61-2.52,21.58,21.58,0,0,1-5.62-6.64c-.79-1.34-1.43-2.72-2.13-4a14.42,14.42,0,0,0-2.42-3.38,7.47,7.47,0,0,0-3.15-2,5.36,5.36,0,0,0-1.67-.21,5.84,5.84,0,0,0-1.53.27,6.39,6.39,0,0,0-3.57,3,7.35,7.35,0,0,0-.58,1.64s0,0,0-.12,0-.2,0-.33a5.74,5.74,0,0,1,.43-1.24,6.38,6.38,0,0,1,1.25-1.66,6.58,6.58,0,0,1,2.35-1.42,6.14,6.14,0,0,1,1.59-.3,5.76,5.76,0,0,1,1.73.2,7.75,7.75,0,0,1,3.26,2,15,15,0,0,1,2.47,3.42c.71,1.28,1.35,2.65,2.13,4a21.67,21.67,0,0,0,5.54,6.58,12.47,12.47,0,0,0,6.49,2.53,9.84,9.84,0,0,0,4.66-.7A15,15,0,0,0,134.19,105.14Z" style="fill: rgb(69, 90, 100); transform-origin: 117.435px 97.3996px;" id="elimggxslltib" class="animable"></path><path d="M135.25,100.32a2.88,2.88,0,0,1-.4.27,10,10,0,0,1-1.18.58,10.68,10.68,0,0,1-1.85.58,12.29,12.29,0,0,1-2.37.29,12.69,12.69,0,0,1-2.38-.19,10.52,10.52,0,0,1-1.88-.51,7.66,7.66,0,0,1-1.2-.53,2.84,2.84,0,0,1-.41-.25s.63.27,1.67.61a13,13,0,0,0,1.86.45,13.19,13.19,0,0,0,2.33.16,13.83,13.83,0,0,0,2.33-.26,13.47,13.47,0,0,0,1.84-.52C134.63,100.62,135.22,100.28,135.25,100.32Z" style="fill: rgb(69, 90, 100); transform-origin: 129.415px 101.179px;" id="eldf4e5pbl7r6" class="animable"></path><path d="M85.36,428.11,67.5,442.48s9.85,21.87,6.81,24.84L44,434.8l26.92-23.53Z" style="fill: rgb(144, 202, 249); transform-origin: 64.68px 439.295px;" id="elxwzqe4nzb7a" class="animable"></path><g id="el6n21xr65402"><g style="opacity: 0.6; transform-origin: 59.0212px 432.21px;" class="animable"><path d="M60,430.82a1.81,1.81,0,0,0-2.39.4,1.74,1.74,0,0,0,.38,2.37,1.92,1.92,0,0,0,2.53-.44,1.81,1.81,0,0,0-.67-2.42" style="fill: rgb(255, 255, 255); transform-origin: 59.0212px 432.21px;" id="elqkz3wy9i5f" class="animable"></path></g></g><g id="elix4wga46fxa"><g style="opacity: 0.6; transform-origin: 59.5175px 450.07px;" class="animable"><path d="M44,434.8l2.72-2.37,28.2,32.42a3.07,3.07,0,0,1-.65,2.86Z" style="fill: rgb(255, 255, 255); transform-origin: 59.5175px 450.07px;" id="elhsw29fl9kx5" class="animable"></path></g></g><path d="M68.15,442.87c-.17.14-1-.62-2.19-1s-2.29-.18-2.35-.39,1.09-.78,2.57-.33S68.33,442.78,68.15,442.87Z" style="fill: rgb(38, 50, 56); transform-origin: 65.8932px 441.934px;" id="el9fyho7qimim" class="animable"></path><path d="M69.74,447.66c-.13.18-1-.29-2.2-.25s-2.05.52-2.19.35.71-1.08,2.17-1.1S69.89,447.52,69.74,447.66Z" style="fill: rgb(38, 50, 56); transform-origin: 67.5456px 447.228px;" id="eljomhk4pnb7s" class="animable"></path><path d="M67.25,453.32c-.16-.12.46-1.06,1.72-1.41s2.29.1,2.21.29-1,.12-2,.43S67.41,453.47,67.25,453.32Z" style="fill: rgb(38, 50, 56); transform-origin: 69.2048px 452.563px;" id="elakbo17md9h8" class="animable"></path><path d="M71.85,439.15c-.21.06-.63-.89-1.5-1.77s-1.78-1.34-1.72-1.55,1.26,0,2.26,1S72.05,439.12,71.85,439.15Z" style="fill: rgb(38, 50, 56); transform-origin: 70.2762px 437.454px;" id="elygwgwj23b99" class="animable"></path><g id="el2tgmn4zuslc"><g style="opacity: 0.3; transform-origin: 72.605px 423.97px;" class="animable"><polygon points="81.82 430.95 78.64 433.51 63.39 417.82 67.25 414.43 81.82 430.95" id="eltkiqohcxm6" class="animable" style="transform-origin: 72.605px 423.97px;"></polygon></g></g><path d="M75.4,436.18c-.06.06-.73-.5-1.45-1.69a10.4,10.4,0,0,1-1-2.23,9.71,9.71,0,0,1-.32-1.41,2.53,2.53,0,0,1-.05-.85,1,1,0,0,1,.81-.83,1.17,1.17,0,0,1,1,.39,2.93,2.93,0,0,1,.46.71,8.61,8.61,0,0,1,.55,1.36,7.93,7.93,0,0,1,.32,2.43,3.71,3.71,0,0,1-.51,2.17c-.12,0,.07-.85,0-2.16a9,9,0,0,0-.46-2.23,8.22,8.22,0,0,0-.54-1.23c-.21-.43-.47-.74-.71-.69s-.12,0-.15.2a2.28,2.28,0,0,0,0,.62,10.44,10.44,0,0,0,.26,1.33,12,12,0,0,0,.79,2.17A15.61,15.61,0,0,1,75.4,436.18Z" style="fill: rgb(38, 50, 56); transform-origin: 74.1474px 432.697px;" id="ellmk3pre76r" class="animable"></path><path d="M75,436.17c-.07,0,.23-.87,1.24-1.85a7.54,7.54,0,0,1,2-1.37,7.81,7.81,0,0,1,1.39-.45,1.83,1.83,0,0,1,1.78.34,1,1,0,0,1,.14,1.11,2.94,2.94,0,0,1-.47.7,5,5,0,0,1-1.13,1,5.17,5.17,0,0,1-2.36.78,2.89,2.89,0,0,1-2.19-.48,17.13,17.13,0,0,0,2.12-.05,5.18,5.18,0,0,0,2-.83,4.38,4.38,0,0,0,1-.88c.31-.36.49-.74.33-.84a1.26,1.26,0,0,0-1.06-.12,7,7,0,0,0-1.27.38,8.09,8.09,0,0,0-2,1.12C75.55,435.53,75.08,436.24,75,436.17Z" style="fill: rgb(38, 50, 56); transform-origin: 78.324px 434.44px;" id="elaakuad3m9j" class="animable"></path><path d="M84.29,431,86,453.89s-22.69,7.77-22.78,12l44.48-.1-1.24-35.73Z" style="fill: rgb(144, 202, 249); transform-origin: 85.46px 447.975px;" id="elm3ixax47wwq" class="animable"></path><g id="elhkzaksh4q6o"><g style="opacity: 0.6; transform-origin: 99.3124px 453.082px;" class="animable"><path d="M99.68,451.42a1.81,1.81,0,0,1,1.34,2,1.73,1.73,0,0,1-2,1.34,1.91,1.91,0,0,1-1.41-2.14,1.81,1.81,0,0,1,2.23-1.17" style="fill: rgb(255, 255, 255); transform-origin: 99.3124px 453.082px;" id="el3xiunz0oyec" class="animable"></path></g></g><g id="el4buni8c85xf"><g style="opacity: 0.6; transform-origin: 85.36px 464.23px;" class="animable"><path d="M107.72,465.82l-.13-3.6-42.95,1.59A3.07,3.07,0,0,0,63,466.24Z" style="fill: rgb(255, 255, 255); transform-origin: 85.36px 464.23px;" id="elv1qp7dp671" class="animable"></path></g></g><path d="M85.29,453.69c0,.22,1.1.28,2.2.93s1.7,1.55,1.9,1.45-.18-1.33-1.52-2.1S85.23,453.5,85.29,453.69Z" style="fill: rgb(38, 50, 56); transform-origin: 87.364px 454.774px;" id="elhynhz8p141f" class="animable"></path><path d="M80.71,455.81c0,.21.91.54,1.68,1.43s1,1.85,1.24,1.83.31-1.25-.68-2.33S80.7,455.6,80.71,455.81Z" style="fill: rgb(38, 50, 56); transform-origin: 82.2458px 457.392px;" id="elq51oz4truu" class="animable"></path><path d="M78.28,461.49c.2,0,.46-1.06-.15-2.22s-1.63-1.6-1.72-1.42.57.8,1,1.76S78.06,461.48,78.28,461.49Z" style="fill: rgb(38, 50, 56); transform-origin: 77.4559px 459.651px;" id="el8d6bu251x5n" class="animable"></path><path d="M85.47,448.44c.1.2,1.09-.14,2.32-.11s2.2.38,2.3.19-.84-.92-2.29-.94S85.36,448.28,85.47,448.44Z" style="fill: rgb(38, 50, 56); transform-origin: 87.7795px 448.078px;" id="elb5h2lus9l4a" class="animable"></path><g id="el1jw0ztdtfrd"><g style="opacity: 0.3; transform-origin: 96.19px 445.835px;" class="animable"><polygon points="85.29 444.13 85.59 448.2 107.09 447.82 106.94 443.47 85.29 444.13" id="el6zejz64cv0w" class="animable" style="transform-origin: 96.19px 445.835px;"></polygon></g></g><path d="M85.21,443.82a4.15,4.15,0,0,0,2.22-.1,9.9,9.9,0,0,0,2.3-.8,10.68,10.68,0,0,0,1.25-.73,3.09,3.09,0,0,0,.66-.55,1,1,0,0,0,0-1.16,1.19,1.19,0,0,0-1-.46,2.8,2.8,0,0,0-.83.15,8,8,0,0,0-1.37.53,7.61,7.61,0,0,0-2,1.43c-1,1-1.32,1.82-1.24,1.86s.57-.64,1.59-1.47a9,9,0,0,1,1.94-1.19,7.91,7.91,0,0,1,1.27-.45c.46-.14.86-.16,1,.05s0,.1,0,.25a2.3,2.3,0,0,1-.48.4,12.07,12.07,0,0,1-1.15.72,13.36,13.36,0,0,1-2.12.91A16.45,16.45,0,0,0,85.21,443.82Z" style="fill: rgb(38, 50, 56); transform-origin: 88.5068px 442.005px;" id="elufk4zjrgaf" class="animable"></path><path d="M85.5,444.12A3.53,3.53,0,0,0,86,442a7.3,7.3,0,0,0-.41-2.42A6.62,6.62,0,0,0,85,438.2a1.81,1.81,0,0,0-1.46-1.07,1.06,1.06,0,0,0-.91.66,3,3,0,0,0-.19.82,5.14,5.14,0,0,0,1.1,3.76c.91,1.12,1.83,1.34,1.84,1.27s-.7-.5-1.41-1.58a5.12,5.12,0,0,1-.79-2.07,4.56,4.56,0,0,1,0-1.28c0-.48.22-.87.39-.82s.62.32.81.69a7,7,0,0,1,.6,1.19,8.08,8.08,0,0,1,.52,2.2C85.58,443.27,85.38,444.1,85.5,444.12Z" style="fill: rgb(38, 50, 56); transform-origin: 84.2114px 440.625px;" id="elpw3vco6oj38" class="animable"></path><path d="M67.74,266.46s4.82,68.45,6.7,84.16c1.19,10,7,93.89,7,93.89l29-.9-4.68-132.89V270Z" style="fill: rgb(38, 50, 56); transform-origin: 89.09px 355.485px;" id="eluceoy40nhp" class="animable"></path><path d="M63.84,413l19.21,19.47s58.17-56.68,60.54-60.93,1.65-56.68,1.65-56.68l-1.7-47L102,270l4.1,46.74,5.53,43Z" style="fill: rgb(38, 50, 56); transform-origin: 104.591px 350.165px;" id="el2i4o1kipct5" class="animable"></path><path d="M116.61,399.41s-.19.22-.59.62l-1.77,1.79-6.77,6.74-24.29,24-.14.15-.14-.15L63.68,413.12l-.15-.16.14-.16,15.51-17.29,32.31-36,0,.16c-1.74-14.67-3.18-26.91-4.2-35.5-.49-4.27-.88-7.64-1.14-10-.13-1.13-.22-2-.29-2.63,0-.28,0-.5-.06-.67a2,2,0,0,1,0-.23,1.16,1.16,0,0,1,0,.23c0,.16,0,.38.1.67.08.61.19,1.48.34,2.62.29,2.31.72,5.67,1.26,9.94,1.06,8.59,2.56,20.82,4.37,35.48v.1l-.06.07-32.27,36L64,413.11v-.32l19.19,19.5h-.29c10.1-9.88,18.51-18.11,24.4-23.89l6.85-6.66L116,400C116.39,399.6,116.61,399.41,116.61,399.41Z" style="fill: rgb(69, 90, 100); transform-origin: 90.07px 371.675px;" id="elxc2rmbl64pm" class="animable"></path><path d="M120.74,363.78a21.73,21.73,0,0,1-4.23-1.82,22.14,22.14,0,0,1-4-2.24,22.5,22.5,0,0,1,4.23,1.82A22.14,22.14,0,0,1,120.74,363.78Z" style="fill: rgb(69, 90, 100); transform-origin: 116.625px 361.75px;" id="elbslmzks5dd8" class="animable"></path><path d="M109.28,308.43a10.18,10.18,0,0,1-1.75.17l-4.67.25h-.21v-.21c0-2.41,0-5.37-.07-8.55-.08-4.14-.24-7.88-.36-10.59,0-1.28-.1-2.36-.14-3.21a6.32,6.32,0,0,1,0-1.18,6.15,6.15,0,0,1,.18,1.16c.08.76.18,1.85.29,3.21.2,2.71.41,6.45.49,10.6.07,3.19,0,6.15,0,8.57l-.2-.2,4.68-.08A11.15,11.15,0,0,1,109.28,308.43Z" style="fill: rgb(69, 90, 100); transform-origin: 105.666px 296.98px;" id="elhs1rbtbruys" class="animable"></path><path d="M107.26,286.69s.15-.08.46-.05a2,2,0,0,1,1.13.57,2.23,2.23,0,0,1,.69,1.78,2.09,2.09,0,0,1-1.53,1.75,2.11,2.11,0,0,1-2.26-.56,2.23,2.23,0,0,1-.45-1.85,2,2,0,0,1,.6-1.12c.23-.2.4-.24.41-.22a2.64,2.64,0,0,0-.68,1.39,1.93,1.93,0,0,0,.45,1.51,1.83,1.83,0,0,0,3-.95,2,2,0,0,0-.49-1.5A2.71,2.71,0,0,0,107.26,286.69Z" style="fill: rgb(69, 90, 100); transform-origin: 107.4px 288.748px;" id="elvv8tx839nua" class="animable"></path><path d="M205.78,213c2.36-1.14,5-2.32,5-2.32l2.32-1.17a2.27,2.27,0,0,1,0,.52,2,2,0,0,0,.13,1,1.54,1.54,0,0,0,1.66.57,3.68,3.68,0,0,0,2.32-5.93,2.68,2.68,0,0,0-.14-1.06c-.76-2.32-4.18-3.28-4.18-3.28l.76-.52s2.78-.59,5.69,3.14a2.9,2.9,0,0,0,1.75,1.1,1.45,1.45,0,0,0,1.24-.25c.89-.73.6-1.54-1.18-3.9s-4.29-4-6.28-4a18.64,18.64,0,0,0-2.76.15s6.54-5.12,6.94-5.46c1.16-1,1.68-2.32,1.1-3.16-.38-.53-1.25-.93-2.63.18-1.2,1-14.73,9.2-14.73,9.2l-5.77,4-7.22,2.1,4.49,11.3,5-2.25C201.21,213.35,204.07,213.81,205.78,213Z" style="fill: rgb(255, 191, 157); transform-origin: 206.309px 201.556px;" id="elw7xxez8ltj" class="animable"></path><path d="M198.37,202.43a2.18,2.18,0,0,0,2.32,1c.89-.11,1.72-.52,2.61-.7,2.65-.54,5.42,1.07,8,.41.37-.1.79-.32.78-.7s-.39-.55-.71-.68l-8.29-3.37" style="fill: rgb(255, 191, 157); transform-origin: 205.225px 200.934px;" id="elt0996eiog9p" class="animable"></path><path d="M203.12,198.39a3.87,3.87,0,0,1,.93.28c.59.2,1.43.52,2.48.91l3.64,1.43,1.05.42c.33.15.82.22,1.1.77a.75.75,0,0,1-.2.82,1.63,1.63,0,0,1-.65.34,5.22,5.22,0,0,1-1.3.18,33.33,33.33,0,0,1-4.79-.64,6.78,6.78,0,0,0-2,0c-.62.11-1.19.33-1.74.48a3.17,3.17,0,0,1-2.66-.19c-.56-.39-.61-.8-.59-.79a2.53,2.53,0,0,0,.69.62,3.06,3.06,0,0,0,2.46,0,17.85,17.85,0,0,1,1.76-.54,6.67,6.67,0,0,1,2.15-.08,40.25,40.25,0,0,0,4.72.6,5.6,5.6,0,0,0,1.18-.16c.36-.1.62-.33.52-.5s-.45-.36-.81-.51l-1-.43-3.6-1.52c-1-.44-1.85-.81-2.42-1.07A3.69,3.69,0,0,1,203.12,198.39Z" style="fill: rgb(255, 154, 108); transform-origin: 205.377px 200.988px;" id="eldwvazqsecrl" class="animable"></path><path d="M212.84,201.21a3.72,3.72,0,0,1,1.59-.57,2.9,2.9,0,0,1,1.73.47,7.19,7.19,0,0,1,1.66,1.54,11.42,11.42,0,0,0,1.63,1.69,3.85,3.85,0,0,0,1.77.81,1.54,1.54,0,0,0,1.26-.4,1,1,0,0,0,.26-.41s-.12.13-.35.31a1.4,1.4,0,0,1-1.13.27,3.71,3.71,0,0,1-1.62-.82,12.75,12.75,0,0,1-1.57-1.67,6.86,6.86,0,0,0-1.76-1.58,3,3,0,0,0-1.9-.44,2.69,2.69,0,0,0-1.23.47C212.93,201.06,212.83,201.2,212.84,201.21Z" style="fill: rgb(255, 154, 108); transform-origin: 217.79px 202.779px;" id="eluh87jfxtxcr" class="animable"></path><path d="M219.54,191.12a10.84,10.84,0,0,0-1.31,1l-3.08,2.51L212,197.1a11.87,11.87,0,0,0-1.27,1.05,6.53,6.53,0,0,0,1.41-.87c.84-.57,2-1.41,3.19-2.39s2.28-1.89,3-2.58A7.13,7.13,0,0,0,219.54,191.12Z" style="fill: rgb(255, 154, 108); transform-origin: 215.135px 194.635px;" id="el8j5pvz8jylc" class="animable"></path><path d="M212.55,203.83a2.42,2.42,0,0,0,.45.26,1.51,1.51,0,0,1,.85.95.82.82,0,0,1-.27.76,4.6,4.6,0,0,1-.89.61,1.83,1.83,0,0,0-.89,1,1.53,1.53,0,0,0,.28,1.39,1.81,1.81,0,0,0,1.25.66,2.24,2.24,0,0,0,1.29-.25,7,7,0,0,0,1.64-1.34,4.29,4.29,0,0,0,.81-1.18c.12-.32.12-.51.1-.51s-.06.17-.22.45a4.59,4.59,0,0,1-.86,1.08,7.81,7.81,0,0,1-1.61,1.24,1.79,1.79,0,0,1-2.14-.35,1.24,1.24,0,0,1-.23-1.1,1.63,1.63,0,0,1,.74-.8,4.16,4.16,0,0,0,.93-.67,1.05,1.05,0,0,0,.3-1,1.61,1.61,0,0,0-1-1A1.38,1.38,0,0,0,212.55,203.83Z" style="fill: rgb(255, 154, 108); transform-origin: 214.46px 206.651px;" id="elpk420oa01f" class="animable"></path><path d="M213.45,209.15s-.18.07-.34.33a1.41,1.41,0,0,0-.06,1.28,1.91,1.91,0,0,0,1.58,1.06,3.11,3.11,0,0,0,2.21-.73,3.75,3.75,0,0,0,1.29-1.93,3.55,3.55,0,0,0,0-1.89,3.35,3.35,0,0,0-.55-1.14c-.18-.24-.31-.35-.32-.33a6.08,6.08,0,0,1,.64,1.53,3.51,3.51,0,0,1-.06,1.75,3.58,3.58,0,0,1-1.2,1.75,3,3,0,0,1-2,.69,1.7,1.7,0,0,1-1.39-.86,1.34,1.34,0,0,1,0-1.12C213.34,209.28,213.47,209.18,213.45,209.15Z" style="fill: rgb(255, 154, 108); transform-origin: 215.591px 208.812px;" id="elj8eqbcuzbsp" class="animable"></path><path d="M205.52,208.17s-.12-.28-.51-.6a3.06,3.06,0,0,0-1.9-.69l.11.26a7.68,7.68,0,0,0,.75-.83,7.08,7.08,0,0,0,1.64-3.48,18.74,18.74,0,0,1-1.9,3.28,9.78,9.78,0,0,1-.71.81l-.26.27h.37a3.27,3.27,0,0,1,1.78.54C205.29,208,205.48,208.2,205.52,208.17Z" style="fill: rgb(255, 154, 108); transform-origin: 204.175px 205.501px;" id="elwivv345np7r" class="animable"></path><path d="M216.67,199.5a1.42,1.42,0,0,0-.13,1.34c.2.77.75,1.17.8,1.09s-.31-.51-.48-1.17S216.76,199.52,216.67,199.5Z" style="fill: rgb(255, 154, 108); transform-origin: 216.887px 200.72px;" id="el7wnpk8hfk22" class="animable"></path><path d="M140.73,162.27a28.32,28.32,0,0,1,6.71,10c1.63,4.37,11.49,37.77,11.49,37.77l34.37-7.32L199,218.6S160.37,234,154.68,234.09c-7.58.18-13.85-5-14-13.06S140.73,162.27,140.73,162.27Z" style="fill: rgb(144, 202, 249); transform-origin: 169.812px 198.182px;" id="elscas0o1g43c" class="animable"></path><path d="M90.59,153.93s7.55,8.25,27.31,1.67l12.49,18.27,12.83,104-42.08,6.78-32.78-5.2,10.45-105.6Z" style="fill: rgb(224, 224, 224); transform-origin: 105.79px 219.29px;" id="elih6c72mhse" class="animable"></path><path d="M92.38,155c1.6,3.52,5.48,11.8,5.48,11.8s-9.77,64.84-10.8,75.1c-1.13,11.29,5.86,51.27,5.86,51.27l-34.27-5.36,9.64-105.73L63.61,161.7a108.7,108.7,0,0,1,16.64-5.19l7.19-1,1.61-3.57,1.22-2.12Z" style="fill: rgb(144, 202, 249); transform-origin: 78.255px 221.495px;" id="elkhivty4lba9" class="animable"></path><g id="el0iprkjy9h6t"><g style="opacity: 0.3; transform-origin: 78.986px 241.664px;" class="animable"><path d="M94.17,234.1C90,234,77.77,237.52,73.6,238s-7.19,1-10.71,3.55l-.52,5.53c2.43,1.2,5.18,1.49,7.85,1.94a9.54,9.54,0,0,0,7.71-1.69c1.13-1,2-2.27,3.24-3s2.42-1.85,3.77-1.59C95,244.63,97.6,235.92,94.17,234.1Z" id="el6wc74q709t" class="animable" style="transform-origin: 78.986px 241.664px;"></path></g></g><path d="M88.26,156.18a4.38,4.38,0,0,1,.32.95c.17.62.41,1.51.69,2.63.57,2.22,1.32,5.3,2.12,8.7l.83,3.56h-.45a14.34,14.34,0,0,1,1.32-3.41,7.21,7.21,0,0,1,1.75-2.32,1.63,1.63,0,0,1,1.08-.33,1.43,1.43,0,0,1,.79.3c.37.32.33.63.31.61a1.39,1.39,0,0,0-.4-.49,1.36,1.36,0,0,0-1.61.14,7.63,7.63,0,0,0-1.58,2.27,15,15,0,0,0-1.21,3.34l-.22.94-.23-.94c-.26-1.12-.55-2.32-.84-3.56-.8-3.41-1.5-6.5-2-8.74-.24-1.12-.42-2-.54-2.66A4.19,4.19,0,0,1,88.26,156.18Z" style="fill: rgb(38, 50, 56); transform-origin: 92.6461px 164.625px;" id="elmrcf6aw5wvn" class="animable"></path><path d="M67.39,243.65l8.69,2.53a49.17,49.17,0,0,1,3.32,14.14c.51,7.56-2.81,62.39-2.81,62.39L48.75,321.5,47.91,319a10.31,10.31,0,0,1-.5-4c.7-9,1.94-40.28,8.7-58.48C59.34,247.81,67.39,243.65,67.39,243.65Z" style="fill: rgb(69, 90, 100); transform-origin: 63.4181px 283.18px;" id="elc1su94phqoa" class="animable"></path><path d="M77.12,156.68s2.64,5,2.33,16S63.91,260,63.91,260l9.7.85S83.48,197.41,84,191s4.09-29.67,0-34.75C84,156.28,80,154.5,77.12,156.68Z" style="fill: rgb(69, 90, 100); transform-origin: 74.9245px 208.222px;" id="eltjtonhnl7nj" class="animable"></path><path d="M60.39,249.4s-10.21,12.72-13.61,36.7l4.51,1Z" style="fill: rgb(69, 90, 100); transform-origin: 53.585px 268.25px;" id="el9lsw80fr1y" class="animable"></path><path d="M66.31,254.89a2.31,2.31,0,0,1,0,.47q-.09.52-.21,1.32c-.18,1.15-.45,2.8-.73,4.86-.59,4.1-1.15,9.82-2.32,16.06-.31,1.56-.61,3.07-1,4.54a10.86,10.86,0,0,1-1.77,4,4.44,4.44,0,0,1-3.51,1.79,19,19,0,0,1-3.4-.4c-2.06-.35-3.67-.84-4.81-1l-1.31-.26a1.59,1.59,0,0,1-.46-.12,2.71,2.71,0,0,1,.47,0c.31,0,.76.08,1.33.17,1.16.15,2.79.58,4.83.89a20.29,20.29,0,0,0,3.34.34,4,4,0,0,0,3.17-1.67A10.46,10.46,0,0,0,61.59,282c.35-1.44.65-3,.95-4.51,1.17-6.21,1.78-11.92,2.46-16,.32-2.05.64-3.71.88-4.84.11-.53.21-1,.29-1.31A1.39,1.39,0,0,1,66.31,254.89Z" style="fill: rgb(38, 50, 56); transform-origin: 56.556px 271.41px;" id="elze1e6mwai6" class="animable"></path><path d="M76.27,246.69a8.43,8.43,0,0,1-.08,1.5c-.1,1-.23,2.42-.39,4.07-.09.87-.19,1.81-.29,2.81a25.47,25.47,0,0,1-.46,3.24,5.18,5.18,0,0,1-2,3.09,4.57,4.57,0,0,1-3.83.82,4.38,4.38,0,0,1-3-2.5,7.31,7.31,0,0,1-.33-3.64c.23-2.28.55-4.32.87-6s.64-3.07.89-4a8.62,8.62,0,0,1,.44-1.44,10.72,10.72,0,0,1-.26,1.48c-.19,1-.46,2.32-.74,4s-.56,3.73-.77,6a7.25,7.25,0,0,0,.32,3.42,4,4,0,0,0,2.71,2.22,4.11,4.11,0,0,0,3.44-.74,4.75,4.75,0,0,0,1.82-2.82,26.56,26.56,0,0,0,.49-3.17c.12-1,.24-1.94.35-2.8.22-1.65.4-3,.54-4.06A10,10,0,0,1,76.27,246.69Z" style="fill: rgb(38, 50, 56); transform-origin: 71.0347px 253.491px;" id="elht8uvmmu32o" class="animable"></path><path d="M76.66,322.77a7.79,7.79,0,0,1-1-1c-.64-.66-1.56-1.61-2.73-2.76s-2.6-2.48-4.23-3.9c-.82-.71-1.69-1.44-2.61-2.18A8.08,8.08,0,0,0,63,311.22a3.15,3.15,0,0,0-1.7.07,4.94,4.94,0,0,0-1.47.89l-2.57,2.21-4.39,3.75-3,2.5a6.79,6.79,0,0,1-1.14.86,8.48,8.48,0,0,1,1-1l2.88-2.61L57,314.07l2.57-2.25a5.35,5.35,0,0,1,1.6-1,3.53,3.53,0,0,1,2-.09,8.46,8.46,0,0,1,3.26,1.82c.91.75,1.78,1.49,2.59,2.21,1.63,1.45,3,2.82,4.18,4s2,2.17,2.64,2.87A8.42,8.42,0,0,1,76.66,322.77Z" style="fill: rgb(38, 50, 56); transform-origin: 62.695px 316.698px;" id="elfqqx7qlsbee" class="animable"></path><path d="M68.81,262.65c.13,0-1.26,10.79-3.11,24.06s-3.46,24-3.59,24,1.27-10.79,3.12-24.06S68.68,262.63,68.81,262.65Z" style="fill: rgb(38, 50, 56); transform-origin: 65.46px 286.68px;" id="el3fc0vyp858d" class="animable"></path><path d="M73,257.42s0-.23-.17-.6a2.59,2.59,0,0,0-.93-1.28,2.39,2.39,0,0,0-2.21-.29,2.32,2.32,0,1,0,2.21,4,2.51,2.51,0,0,0,.93-1.28c.12-.37.13-.59.17-.59a1.1,1.1,0,0,1,0,.64,2.55,2.55,0,0,1-.91,1.5,2.66,2.66,0,0,1-2.56.44,2.73,2.73,0,0,1,0-5.16,2.66,2.66,0,0,1,2.56.44,2.49,2.49,0,0,1,.91,1.5A1.12,1.12,0,0,1,73,257.42Z" style="fill: rgb(38, 50, 56); transform-origin: 70.3727px 257.38px;" id="el5vpc4kyir1t" class="animable"></path><path d="M147.09,293.18s-3.38-51.67-3.13-52.33-.58-32.57,0-33.07-3.23-45.51-3.23-45.51l-19.83-6.13.26,0-4.54-4.8s-5.69,18.47-5.47,18.69c8.29,8.26,19.24,63.82,10.87,101.34,0,.67-1,21.77-1,21.77Z" style="fill: rgb(144, 202, 249); transform-origin: 129.117px 222.26px;" id="el5trd0mu7y26" class="animable"></path><path d="M143.08,210.69a4.41,4.41,0,0,1-.67.53l-2,1.4,0,0-.06,0-10.53-5.1-.11-.05v-.13c-.26-3.42-.55-7.29-.86-11.39-.27-3.84-.53-7.49-.77-10.77V185l.18,0a27.08,27.08,0,0,1,11.26.08,24.09,24.09,0,0,1,3.1.89,4.05,4.05,0,0,1,1,.46s-.38-.12-1.09-.33a29.58,29.58,0,0,0-3.11-.76,27.75,27.75,0,0,0-11.11.09l.17-.23c.24,3.28.52,6.92.8,10.77.3,4.09.57,8,.81,11.39l-.11-.17,10.44,5.27h-.12l2.06-1.31A4.55,4.55,0,0,1,143.08,210.69Z" style="fill: rgb(38, 50, 56); transform-origin: 135.85px 198.534px;" id="elsdh0zzy793" class="animable"></path><path d="M143.4,178.25a7.17,7.17,0,0,1,.15,1.35c.06.87.12,2.13.18,3.69.11,3.12.14,7.43.11,12.19s-.05,9.06,0,12.18c0,1.49,0,2.73,0,3.69a7.12,7.12,0,0,1,0,1.35,7.91,7.91,0,0,1-.14-1.35c-.07-.87-.13-2.13-.18-3.69-.11-3.12-.14-7.43-.12-12.19s0-9.06,0-12.17c0-1.49,0-2.73,0-3.69A8.58,8.58,0,0,1,143.4,178.25Z" style="fill: rgb(38, 50, 56); transform-origin: 143.623px 195.475px;" id="elk0qu0qsv48p" class="animable"></path><path d="M121.16,156.18a5.54,5.54,0,0,1-.06,1.24c-.07.79-.18,1.93-.34,3.35-.33,2.82-.82,6.72-1.49,11-.24,1.55-.49,3-.74,4.41l-.12.66-.31-.59a42.81,42.81,0,0,0-2.25-3.87c-.36-.57-.73-1.09-1.07-1.57a5.87,5.87,0,0,0-1-1.22,1.59,1.59,0,0,0-1.13-.42,1.41,1.41,0,0,0-.83.39,1,1,0,0,0-.28.72s-.21-.34.17-.83a1.49,1.49,0,0,1,.91-.5,1.82,1.82,0,0,1,1.34.42,5.84,5.84,0,0,1,1.13,1.23c.36.48.74,1,1.13,1.56a39.35,39.35,0,0,1,2.33,3.88l-.43.06c.23-1.37.47-2.86.72-4.4.67-4.28,1.21-8.17,1.62-11,.2-1.33.37-2.45.5-3.33A7.32,7.32,0,0,1,121.16,156.18Z" style="fill: rgb(38, 50, 56); transform-origin: 116.327px 166.51px;" id="elvrbpczhqd2" class="animable"></path><path d="M143.45,190.39a12.82,12.82,0,0,1-2.17-.25c-1.34-.19-3.18-.41-5.22-.53s-3.9-.1-5.24-.06a12.18,12.18,0,0,1-2.19,0,8.53,8.53,0,0,1,2.17-.34,36.86,36.86,0,0,1,5.29-.08,38.18,38.18,0,0,1,5.24.66A8.68,8.68,0,0,1,143.45,190.39Z" style="fill: rgb(38, 50, 56); transform-origin: 136.04px 189.73px;" id="elcwm86o7v187" class="animable"></path><path d="M64.4,161.42s-4.27.77-8.32,9.27S41.63,207.44,41,209.33l21.26,14.14,12-35.59Z" style="fill: rgb(144, 202, 249); transform-origin: 57.63px 192.445px;" id="el4fir3sv8zj8" class="animable"></path><path d="M75.49,238.1,75.67,226l-13.73-4.65,2.59-8.59-21.16-10S33.9,227.61,34,232.16c0,1.68,3.79,10.23,11.67,11,5.13.5,16.74,1.18,24.54,1.46A5.2,5.2,0,0,0,75.49,238.1Z" style="fill: rgb(144, 202, 249); transform-origin: 54.8346px 223.693px;" id="eli6orqa7t1ss" class="animable"></path><path d="M71.61,193.8c.13,0-1.73,6.32-4.15,14S63,221.74,62.86,221.7s1.74-6.32,4.15-14S71.49,193.76,71.61,193.8Z" style="fill: rgb(38, 50, 56); transform-origin: 67.2345px 207.75px;" id="elq7y4toigjqc" class="animable"></path><path d="M68.62,223.64a3.41,3.41,0,0,1-.89-.2c-.57-.16-1.38-.41-2.38-.73s-2.16-.78-3.5-1.13a22.7,22.7,0,0,0-4.39-.81,19.77,19.77,0,0,0-8,.88c-2,.68-3.07,1.38-3.12,1.3a3.42,3.42,0,0,1,.75-.53,15.11,15.11,0,0,1,2.26-1.09,18.65,18.65,0,0,1,8.16-1,27.78,27.78,0,0,1,8,2.11c1,.35,1.78.65,2.33.86A3.29,3.29,0,0,1,68.62,223.64Z" style="fill: rgb(38, 50, 56); transform-origin: 57.48px 221.938px;" id="elsrpgikw4rip" class="animable"></path><path d="M55.06,213.87a4.28,4.28,0,0,1,1.63.5,11.55,11.55,0,0,1,5.68,5.71,3.87,3.87,0,0,1,.49,1.62A19.24,19.24,0,0,0,59.71,217,19.19,19.19,0,0,0,55.06,213.87Z" style="fill: rgb(38, 50, 56); transform-origin: 58.96px 217.785px;" id="el4hw2blq1zvr" class="animable"></path><path d="M71.41,182c-.09,0,.08-1.14,0-3a21.72,21.72,0,0,0-1.37-7,22.26,22.26,0,0,0-3.55-6.15c-1.17-1.42-2-2.16-2-2.23a3.16,3.16,0,0,1,.65.47,15.29,15.29,0,0,1,1.58,1.54,19.21,19.21,0,0,1,2,2.61,21.43,21.43,0,0,1,1.77,3.59,21.68,21.68,0,0,1,1,3.87,18.87,18.87,0,0,1,.24,3.26,14,14,0,0,1-.18,2.2A2.8,2.8,0,0,1,71.41,182Z" style="fill: rgb(38, 50, 56); transform-origin: 68.1108px 172.81px;" id="elek62bzwgizb" class="animable"></path><g id="eljq6zwh37jua"><g style="opacity: 0.3; transform-origin: 53.735px 220.883px;" class="animable"><path d="M53.88,218.57a14.36,14.36,0,0,0-8.72,3.31,1,1,0,0,0-.44.66.71.71,0,0,0,.74.66,2.08,2.08,0,0,0,1-.35,20.87,20.87,0,0,1,16-1.25l.29-.27A14.42,14.42,0,0,0,53.88,218.57Z" id="elhip2tppq9ct" class="animable" style="transform-origin: 53.735px 220.883px;"></path></g></g><path d="M75.67,240.54s0,.12,0,.33a4.2,4.2,0,0,1-.26.9A4.72,4.72,0,0,1,73,244.29a4.81,4.81,0,0,1-2.37.52c-.85,0-1.77,0-2.72,0-1.92,0-4-.13-6.23-.25-4.42-.25-8.41-.57-11.29-.83L47,243.35a7,7,0,0,1-1.24-.2,7.6,7.6,0,0,1,1.26,0l3.42.2,11.29.69c2.21.13,4.31.23,6.22.3l2.71.07a4.53,4.53,0,0,0,2.22-.43,4.71,4.71,0,0,0,2.33-2.29,5.93,5.93,0,0,0,.34-.86A1.13,1.13,0,0,1,75.67,240.54Z" style="fill: rgb(38, 50, 56); transform-origin: 60.715px 242.677px;" id="elb0722vljwmq" class="animable"></path><path d="M78.53,239.84l11.86.43c1.19,0,2.29-1,2.8-2.73L102.47,205c.59-2.25-.66-4.06-2.68-4.19l-15.68-1c-2.52,0-3.87,1.08-4.32,3l-6.11,25.75C72.39,234,74.83,239.7,78.53,239.84Z" style="fill: rgb(38, 50, 56); transform-origin: 87.974px 220.04px;" id="elv8mzwggz79s" class="animable"></path><path d="M68.39,224.48l3.15-6.68,5.18-1.73-1.59,6.38c2,1,5.1,1.49,6.85.52s8.64-7.81,9.94-7.16,2.46,2.23,1.27,3.73-7.64,6.16-6.31,7.54,8.77-4.66,11-4.21,3.52,1.72,2.3,2.64-4.2,3.93-4.74,5.25c.14,1.64.91,4,.2,4.37a26.8,26.8,0,0,1-5.48,1.9,58,58,0,0,0-5.71,2.12,12.71,12.71,0,0,1-9,.21l-1.49-.52a5.74,5.74,0,0,1-3.83-5.46l0-4.93Z" style="fill: rgb(255, 191, 157); transform-origin: 84.5202px 227.924px;" id="eljg6swmvr7v8" class="animable"></path><path d="M76.35,222.94a10.73,10.73,0,0,0,.5-1.57c.3-1.12.7-2.58,1.17-4.34s1-4.05,1.67-6.45c.31-1.22.64-2.49,1-3.81s.52-2.8,1.42-3.78,2.44-1,3.75-1l3.92.29,6.64.48,4.48.27a8.65,8.65,0,0,0,1.65,0,9,9,0,0,0-1.63-.24l-4.47-.44-6.64-.59-3.92-.33a9.12,9.12,0,0,0-2.14.09,3.68,3.68,0,0,0-2,1,4.79,4.79,0,0,0-1,2c-.19.7-.34,1.37-.51,2-.33,1.32-.64,2.6-.94,3.82-.58,2.41-1.11,4.6-1.56,6.48l-1,4.37A9.33,9.33,0,0,0,76.35,222.94Z" style="fill: rgb(69, 90, 100); transform-origin: 89.45px 212.172px;" id="elj2165psfxkg" class="animable"></path><path d="M90.59,207.2A1.17,1.17,0,1,0,91.75,206,1.16,1.16,0,0,0,90.59,207.2Z" style="fill: rgb(255, 255, 255); transform-origin: 91.7595px 207.17px;" id="elud9un0xoto" class="animable"></path><path d="M143.6,236.44c-.14,0-.3-13-.36-29.09s0-29.1.16-29.1.31,13,.36,29.1S143.75,236.44,143.6,236.44Z" style="fill: rgb(38, 50, 56); transform-origin: 143.497px 207.345px;" id="elern2cxj65vg" class="animable"></path></g><defs>     <filter id="active" height="200%">         <feMorphology in="SourceAlpha" result="DILATED" operator="dilate" radius="2"></feMorphology>                <feFlood flood-color="#32DFEC" flood-opacity="1" result="PINK"></feFlood>        <feComposite in="PINK" in2="DILATED" operator="in" result="OUTLINE"></feComposite>        <feMerge>            <feMergeNode in="OUTLINE"></feMergeNode>            <feMergeNode in="SourceGraphic"></feMergeNode>        </feMerge>    </filter>    <filter id="hover" height="200%">        <feMorphology in="SourceAlpha" result="DILATED" operator="dilate" radius="2"></feMorphology>                <feFlood flood-color="#ff0000" flood-opacity="0.5" result="PINK"></feFlood>        <feComposite in="PINK" in2="DILATED" operator="in" result="OUTLINE"></feComposite>        <feMerge>            <feMergeNode in="OUTLINE"></feMergeNode>            <feMergeNode in="SourceGraphic"></feMergeNode>        </feMerge>            <feColorMatrix type="matrix" values="0   0   0   0   0                0   1   0   0   0                0   0   0   0   0                0   0   0   1   0 "></feColorMatrix>    </filter></defs></svg>